<svg width="100%" height="100%" viewBox="0 0 1920 1080" fill="none" xmlns="http://www.w3.org/2000/svg">
<g opacity="0.15">
<path opacity="0.2" fill-rule="evenodd" clip-rule="evenodd" d="M41.9121 -46C30.8119 -46 19.8861 -43.2385 10.1189 -37.9642C-11.5155 -26.2816 -25 -3.67505 -25 20.9122V1100.22C-25 1110.83 -21.8569 1121.21 -15.9669 1130.05C-5.99166 1145.01 10.8016 1154 28.7847 1154H1899.48C1914.92 1154 1930.1 1150.14 1943.66 1142.77C1973.45 1126.58 1992 1095.39 1992 1061.48V39.0472C1992 4.03768 1970.55 -27.3949 1937.94 -40.1524C1928.07 -44.0167 1917.56 -46 1906.95 -46H41.9121ZM894.199 280.5C985.36 228.996 1101.05 268.067 1142.32 364.296C1161.27 408.491 1197.5 442.997 1242.56 459.781L1252.45 463.463C1309.27 484.625 1353.15 530.818 1371.37 588.65L1383.21 626.205C1426.91 764.919 1293.82 894.158 1156.45 846.408C1129.23 836.946 1100.11 834.279 1071.62 838.64L810.955 878.541C750.55 887.788 688.968 872.298 640.127 835.573C539.062 759.58 519.541 615.67 596.71 515.5L649.351 447.168C674.858 414.06 706.749 386.407 743.137 365.848L894.199 280.5Z" fill="url(#paint0_linear_645_4367)"/>
<path opacity="0.2" fill-rule="evenodd" clip-rule="evenodd" d="M225.123 -965.842C209.085 -974.495 191.147 -979.022 172.924 -979.015C132.563 -979 95.4617 -956.852 76.2964 -921.332L-765.073 638.027C-773.35 653.367 -776.902 670.813 -775.28 688.168C-772.533 717.562 -755.277 743.639 -729.295 757.658L1973.24 2215.84C1995.54 2227.87 2020.49 2234.13 2045.82 2234.06C2101.48 2233.89 2152.59 2203.29 2179.02 2154.3L2976.06 677.096C3003.35 626.519 2996.86 564.387 2959.71 520.543C2948.45 507.261 2934.81 496.201 2919.49 487.934L225.123 -965.842ZM1201.85 170.226C1373.71 166.872 1510.4 313.508 1495 484.705C1487.93 563.328 1513.37 641.417 1565.39 700.793L1576.8 713.813C1642.39 788.683 1669.78 889.628 1651.02 987.385L1638.83 1050.9C1593.83 1285.37 1300.83 1368.33 1139.59 1192.26C1107.64 1157.37 1067.65 1130.82 1023.09 1114.91L615.429 969.379C520.946 935.649 444.046 865.26 402.111 774.121C315.347 585.552 399.322 362.434 588.886 277.866L718.217 220.17C780.879 192.215 848.514 177.121 917.116 175.783L1201.85 170.226Z" fill="url(#paint1_linear_645_4367)"/>
<path opacity="0.2" fill-rule="evenodd" clip-rule="evenodd" d="M-1459.16 -724.194C-1489 -722.066 -1517.83 -712.548 -1543.08 -696.499C-1598.98 -660.952 -1630.89 -597.609 -1626.17 -531.528L-1419.27 2369.46C-1417.23 2398 -1406.8 2425.3 -1389.27 2447.92C-1359.59 2486.22 -1312.73 2507.16 -1264.4 2503.71L3763.34 2145.13C3804.82 2142.17 3844.9 2128.88 3879.93 2106.47C3956.89 2057.25 4000.76 1969.86 3994.26 1878.74L3798.25 -869.421C3791.54 -963.513 3727.86 -1043.88 3637.79 -1071.92C3610.51 -1080.41 3581.87 -1083.73 3553.37 -1081.7L-1459.16 -724.194ZM894.032 -9.97274C1129.17 -165.889 1447.63 -83.0505 1576.99 167.684C1636.4 282.836 1740.37 368.635 1864.71 405.108L1891.97 413.106C2048.75 459.097 2175.55 574.843 2235.6 726.793L2274.62 825.527C2418.66 1189.96 2085.75 1562.81 1707.39 1460.8C1632.41 1440.59 1553.62 1439 1477.89 1456.19L785.003 1613.39C624.412 1649.83 455.913 1619.99 317.593 1530.64C31.4042 1345.76 -48.6464 962.724 139.546 678.703L267.942 484.928C330.15 391.043 410.569 310.597 504.434 248.358L894.032 -9.97274Z" fill="url(#paint2_linear_645_4367)"/>
</g>
<defs>
<linearGradient id="paint0_linear_645_4367" x1="116.82" y1="1013.37" x2="1219.91" y2="-377.213" gradientUnits="userSpaceOnUse">
<stop stop-color="#7600D1"/>
<stop offset="1" stop-color="#00C1A4"/>
</linearGradient>
<linearGradient id="paint1_linear_645_4367" x1="-492.493" y1="623.107" x2="2185.22" y2="-525.941" gradientUnits="userSpaceOnUse">
<stop stop-color="#7600D1"/>
<stop offset="1" stop-color="#00C1A4"/>
</linearGradient>
<linearGradient id="paint2_linear_645_4367" x1="-1054.76" y1="2108.86" x2="1643.66" y2="-1840.05" gradientUnits="userSpaceOnUse">
<stop stop-color="#7600D1"/>
<stop offset="1" stop-color="#00C1A4"/>
</linearGradient>
</defs>
</svg>
