<svg width="1920" height="1080" viewBox="0 0 1920 1080" fill="none" xmlns="http://www.w3.org/2000/svg">
<g opacity="0.15">
<path opacity="0.2" d="M316.981 1049.41L64.8791 1298.95C-12.6541 1375.69 -32.2746 1493.48 16.1974 1591.21C60.4945 1680.53 153.106 1735.5 252.726 1731.63L2226.75 1654.78C2645.54 1638.48 2975.28 1291.81 2970.62 872.73L2968.5 682.414C2965.6 421.831 2778.17 199.97 2521.73 153.576C2446.75 140.01 2369.75 142.361 2295.74 160.475L2073.26 214.925C1874.01 263.689 1695.62 375.001 1564.24 532.542L1266.36 889.748C1146.91 1032.98 943.04 1072.14 779.031 983.343C627.275 901.183 439.629 928.016 316.981 1049.41Z" fill="url(#paint0_linear_637_3984)"/>
<path opacity="0.2" d="M-214.474 981.102L-544.296 1375.09C-645.711 1496.23 -658.094 1668.73 -575.023 1803.12C-499.076 1925.98 -358.056 1992.79 -214.876 1973.74L2737.28 1580.9C3274.01 1509.48 3656.4 1023.84 3599.92 485.333L3558.83 93.5608C3519.47 -281.732 3219.31 -576.293 2843.35 -608.583C2733.37 -618.029 2622.64 -604.239 2518.34 -568.109L2083.76 -417.567C1881.8 -347.609 1707.58 -214.786 1586.62 -38.5745L1132.7 622.723C979.86 845.388 691.198 929.373 442.759 823.458C212.877 725.454 -54.061 789.482 -214.474 981.102Z" fill="url(#paint1_linear_637_3984)"/>
<path opacity="0.2" d="M-164.796 224.629L-398.133 455.889C-533.071 589.626 -586.944 784.903 -539.665 968.909C-475.079 1220.27 -239.375 1389 19.387 1369.11L2007.28 1216.31C2516.52 1177.17 2914.43 760.567 2930.17 250.067L2944.22 -205.779C2953.69 -512.891 2736.97 -780.683 2434.63 -835.452C2348.93 -850.977 2260.93 -848.287 2176.34 -827.558L1866.75 -751.691C1659.08 -700.799 1473.19 -584.686 1336.36 -420.389L956.227 36.0397C815.268 205.291 574.457 251.553 380.817 146.581C201.632 49.4442 -20.03 81.1525 -164.796 224.629Z" fill="url(#paint2_linear_637_3984)"/>
</g>
<defs>
<linearGradient id="paint0_linear_637_3984" x1="149.031" y1="1549.91" x2="1574.74" y2="-478.055" gradientUnits="userSpaceOnUse">
<stop stop-color="#7600D1"/>
<stop offset="1" stop-color="#00C1A4"/>
</linearGradient>
<linearGradient id="paint1_linear_637_3984" x1="-389.049" y1="1725.67" x2="1393.65" y2="-1391.15" gradientUnits="userSpaceOnUse">
<stop stop-color="#7600D1"/>
<stop offset="1" stop-color="#00C1A4"/>
</linearGradient>
<linearGradient id="paint2_linear_637_3984" x1="-364.514" y1="1138.36" x2="1740.71" y2="-1357.69" gradientUnits="userSpaceOnUse">
<stop stop-color="#7600D1"/>
<stop offset="1" stop-color="#00C1A4"/>
</linearGradient>
</defs>
</svg>
