<svg width="1920" height="1080" viewBox="0 0 1920 1080" fill="none" xmlns="http://www.w3.org/2000/svg">
<g opacity="0.15">
<path opacity="0.2" d="M-74.2006 652.003L-272.324 685.084C-384.479 703.81 -483.439 769.202 -544.645 865.03C-635.519 1007.31 -627.712 1191.23 -525.109 1325.29L-520.558 1331.24C-492.061 1368.47 -457.423 1400.57 -418.132 1426.16L-249.967 1535.67C-72.7913 1651.05 125.737 1729.7 333.859 1766.96L496.523 1796.09C657.749 1824.95 821.511 1837.21 985.238 1832.65L1525.4 1817.64C1740.3 1811.66 1949.39 1746.54 2129.67 1629.44L2361.61 1478.79C2417.44 1442.52 2460.39 1389.55 2484.32 1327.43C2576.88 1087.17 2358.55 843.031 2109.48 908.287L1913.57 959.613C1840.74 978.695 1763.27 967.034 1699.28 927.359C1627.18 882.656 1538.47 873.785 1458.95 903.328L1367.75 937.209C1276.17 971.234 1176.3 976.08 1081.85 951.081L828.172 883.939C759.831 865.851 688.437 862.431 618.68 873.905L441.824 902.993C337.982 920.072 234.669 869.744 184.109 777.449C133.442 684.959 29.8179 634.635 -74.2006 652.003Z" fill="url(#paint0_linear_645_4234)"/>
<path opacity="0.2" d="M-453.745 -85.305L-776.483 -60.6131C-959.18 -46.6354 -1127.39 44.1328 -1239.37 189.166C-1405.62 404.497 -1419.46 700.814 -1274 930.702L-1267.54 940.901C-1227.14 1004.75 -1176.15 1061.24 -1116.75 1107.94L-862.543 1307.81C-594.712 1518.4 -287.343 1673.1 41.3574 1762.74L298.263 1832.81C552.899 1902.25 813.985 1945.4 1077.42 1961.57L1946.56 2014.9C2292.34 2036.12 2637.26 1961.58 2943.42 1799.47L3337.29 1590.92C3432.09 1540.72 3508.61 1461.86 3555.93 1365.58C3738.94 993.219 3423.51 570.073 3014.39 639.103L2692.6 693.397C2572.96 713.583 2450.29 683.76 2353.27 610.905C2243.97 528.819 2102.85 501.864 1970.99 537.88L1819.75 579.186C1667.87 620.667 1506.88 614.126 1358.87 560.462L961.341 416.33C854.246 377.5 740.145 361.775 626.539 370.19L338.508 391.522C169.389 404.048 10.785 308.458 -57.1347 153.072C-125.197 -2.64086 -284.302 -98.2687 -453.745 -85.305Z" fill="url(#paint1_linear_645_4234)"/>
<path opacity="0.2" d="M-1237.35 -632.348L-1652.74 -600.567C-1887.89 -582.577 -2104.39 -465.749 -2248.51 -279.078C-2462.5 -1.92684 -2480.31 379.46 -2293.09 675.348L-2284.78 688.474C-2232.78 770.652 -2167.15 843.358 -2090.7 903.465L-1763.51 1160.73C-1418.78 1431.77 -1023.17 1630.88 -600.104 1746.26L-173.405 1862.64C90.4775 1934.6 361.046 1979.31 634.053 1996.07L1852.07 2070.81C2297.11 2098.13 2741.07 2002.18 3135.12 1793.54L3642.06 1525.11C3764.08 1460.5 3862.57 1358.99 3923.48 1235.08C4159.03 755.813 3753.04 211.184 3226.46 300.032L2812.29 369.915C2658.31 395.895 2500.41 357.51 2375.55 263.739C2234.86 158.087 2053.23 123.393 1883.51 169.749L1688.85 222.914C1493.37 276.304 1286.16 267.886 1095.66 198.814L584 13.3026C446.158 -36.6748 299.3 -56.9138 153.078 -46.0841L-217.644 -18.6271C-435.316 -2.5056 -639.454 -125.538 -726.873 -325.534C-814.475 -525.951 -1019.26 -649.033 -1237.35 -632.348Z" fill="url(#paint2_linear_645_4234)"/>
</g>
<defs>
<linearGradient id="paint0_linear_645_4234" x1="-456.797" y1="1696.94" x2="435.437" y2="-174.438" gradientUnits="userSpaceOnUse">
<stop stop-color="#7600D1"/>
<stop offset="1" stop-color="#00C1A4"/>
</linearGradient>
<linearGradient id="paint1_linear_645_4234" x1="-1217.63" y1="1537.01" x2="482.722" y2="-1338.71" gradientUnits="userSpaceOnUse">
<stop stop-color="#7600D1"/>
<stop offset="1" stop-color="#00C1A4"/>
</linearGradient>
<linearGradient id="paint2_linear_645_4234" x1="-2220.54" y1="1455.72" x2="-32.0268" y2="-2245.59" gradientUnits="userSpaceOnUse">
<stop stop-color="#7600D1"/>
<stop offset="1" stop-color="#00C1A4"/>
</linearGradient>
</defs>
</svg>
