<svg width="67" height="68" viewBox="0 0 67 68" fill="none" xmlns="http://www.w3.org/2000/svg">
<path d="M33.6499 0.75C42.4683 0.75 50.9256 4.25311 57.1612 10.4887C63.3968 16.7243 66.8999 25.1816 66.8999 34C66.8999 42.8184 63.3968 51.2757 57.1612 57.5113C50.9256 63.7469 42.4683 67.25 33.6499 67.25C24.8315 67.25 16.3742 63.7469 10.1386 57.5113C3.90302 51.2757 0.399902 42.8184 0.399902 34C0.399902 25.1816 3.90302 16.7243 10.1386 10.4887C16.3742 4.25311 24.8315 0.75 33.6499 0.75ZM29.5079 40.5597L22.1217 33.1688C21.8569 32.904 21.5425 32.6939 21.1965 32.5506C20.8506 32.4073 20.4798 32.3335 20.1053 32.3335C19.7308 32.3335 19.36 32.4073 19.014 32.5506C18.6681 32.6939 18.3537 32.904 18.0889 33.1688C17.5541 33.7035 17.2537 34.4288 17.2537 35.1851C17.2537 35.9414 17.5541 36.6667 18.0889 37.2015L27.4939 46.6065C27.7579 46.8726 28.0721 47.0838 28.4181 47.228C28.7642 47.3721 29.1354 47.4463 29.5103 47.4463C29.8852 47.4463 30.2563 47.3721 30.6024 47.228C30.9485 47.0838 31.2626 46.8726 31.5267 46.6065L51.0017 27.1267C51.27 26.8631 51.4835 26.5488 51.6297 26.2022C51.776 25.8556 51.8522 25.4835 51.854 25.1073C51.8557 24.7311 51.783 24.3582 51.6399 24.0103C51.4969 23.6623 51.2863 23.3461 51.0205 23.08C50.7546 22.8138 50.4387 22.6029 50.0909 22.4594C49.7431 22.3159 49.3703 22.2427 48.9941 22.244C48.6179 22.2453 48.2457 22.3211 47.8989 22.467C47.5521 22.6129 47.2377 22.826 46.9737 23.094L29.5079 40.5597Z" fill="#00C1A4"/>
</svg>
