<svg width="24" height="24" viewBox="0 0 24 24" fill="none" xmlns="http://www.w3.org/2000/svg">
<path d="M2.00338 11.676C2.00759 11.6809 2.01199 11.6856 2.01657 11.6902L8.96991 18.6369C9.06757 18.7344 9.22583 18.7344 9.32342 18.6367L21.9768 5.97674C21.9813 5.97221 21.9856 5.9675 21.9898 5.96262C22.14 5.78727 22.2185 5.5617 22.2096 5.33099C22.2006 5.10029 22.105 4.88145 21.9417 4.71819C21.7785 4.55494 21.5597 4.4593 21.3289 4.45039C21.0982 4.44148 20.8727 4.51995 20.6973 4.67013C20.6925 4.67428 20.6878 4.67862 20.6833 4.68313L9.13336 16.2199L3.31004 10.3966C3.30549 10.392 3.30077 10.3876 3.29588 10.3835C3.12052 10.2333 2.89495 10.1548 2.66425 10.1637C2.43354 10.1726 2.2147 10.2683 2.05144 10.4315C1.88819 10.5948 1.79255 10.8136 1.78364 11.0443C1.77473 11.275 1.8532 11.5006 2.00338 11.676Z" fill="#00C1A4" stroke="#00C1A4" stroke-width="0.5" stroke-linejoin="round"/>
</svg>
