<svg width="24" height="25" viewBox="0 0 24 25" fill="none" xmlns="http://www.w3.org/2000/svg">
<path d="M8.24964 18.5H15.7496V20H8.24964V18.5ZM9.74964 21.5H14.2496V23H9.74964V21.5ZM11.9996 2C10.0105 2 8.10286 2.79018 6.69634 4.1967C5.28981 5.60322 4.49964 7.51088 4.49964 9.5C4.44892 10.59 4.65772 11.6765 5.10886 12.67C5.56 13.6636 6.24059 14.5358 7.09464 15.215C7.84464 15.9125 8.24964 16.31 8.24964 17H9.74964C9.74964 15.62 8.91714 14.8475 8.10714 14.105C7.40616 13.5682 6.84749 12.8677 6.48007 12.0649C6.11266 11.2621 5.94769 10.3814 5.99964 9.5C5.99964 7.9087 6.63178 6.38258 7.757 5.25736C8.88222 4.13214 10.4083 3.5 11.9996 3.5C13.5909 3.5 15.1171 4.13214 16.2423 5.25736C17.3675 6.38258 17.9996 7.9087 17.9996 9.5C18.0507 10.382 17.8846 11.2631 17.5159 12.066C17.1471 12.8689 16.587 13.569 15.8846 14.105C15.0821 14.855 14.2496 15.605 14.2496 17H15.7496C15.7496 16.31 16.1471 15.9125 16.9046 15.2075C17.7581 14.5295 18.4384 13.6585 18.8895 12.6663C19.3407 11.674 19.5498 10.5888 19.4996 9.5C19.4996 8.51509 19.3056 7.53982 18.9287 6.62987C18.5518 5.71993 17.9994 4.89314 17.3029 4.1967C16.6065 3.50026 15.7797 2.94781 14.8698 2.5709C13.9598 2.19399 12.9846 2 11.9996 2Z" fill="white"/>
</svg>
