<svg width="48" height="49" viewBox="0 0 48 49" fill="none" xmlns="http://www.w3.org/2000/svg">
<path d="M24 40.5C28.2435 40.5 32.3131 38.8143 35.3137 35.8137C38.3143 32.8131 40 28.7435 40 24.5C40 20.2565 38.3143 16.1869 35.3137 13.1863C32.3131 10.1857 28.2435 8.5 24 8.5C19.7565 8.5 15.6869 10.1857 12.6863 13.1863C9.68571 16.1869 8 20.2565 8 24.5C8 28.7435 9.68571 32.8131 12.6863 35.8137C15.6869 38.8143 19.7565 40.5 24 40.5ZM24 44.5C12.954 44.5 4 35.546 4 24.5C4 13.454 12.954 4.5 24 4.5C35.046 4.5 44 13.454 44 24.5C44 35.546 35.046 44.5 24 44.5ZM22 22.5V34.5H26V22.5H22ZM22 14.5H26V18.5H22V14.5Z" fill="#48BDFF"/>
</svg>
