<svg width="74" height="74" viewBox="0 0 74 74" fill="none" xmlns="http://www.w3.org/2000/svg">
<path fill-rule="evenodd" clip-rule="evenodd" d="M10.7749 7.37508C9.9019 7.37508 9.06465 7.72188 8.44734 8.33919C7.83004 8.9565 7.48324 9.79374 7.48324 10.6667V23.8334C7.48324 24.7064 7.83004 25.5437 8.44734 26.161C9.06465 26.7783 9.9019 27.1251 10.7749 27.1251H17.3582C19.1762 27.1251 20.6499 28.5988 20.6499 30.4168C20.6499 32.2347 19.1762 33.7084 17.3582 33.7084H10.7749C8.15589 33.7084 5.64414 32.668 3.79222 30.8161C1.9403 28.9642 0.899902 26.4524 0.899902 23.8334V10.6667C0.899902 8.04774 1.9403 5.53599 3.79222 3.68407C5.64415 1.83215 8.15589 0.791748 10.7749 0.791748H63.4416C66.0606 0.791748 68.5723 1.83215 70.4243 3.68407C72.2762 5.53599 73.3166 8.04773 73.3166 10.6667V23.8334C73.3166 26.4524 72.2762 28.9642 70.4243 30.8161C68.5723 32.668 66.0606 33.7084 63.4416 33.7084H56.8582C55.0403 33.7084 53.5666 32.2347 53.5666 30.4168C53.5666 28.5988 55.0403 27.1251 56.8582 27.1251H63.4416C64.3146 27.1251 65.1518 26.7783 65.7691 26.161C66.3864 25.5437 66.7332 24.7064 66.7332 23.8334V10.6667C66.7332 9.79375 66.3864 8.9565 65.7691 8.33919C65.1518 7.72188 64.3146 7.37508 63.4416 7.37508H10.7749ZM14.0666 17.2501C14.0666 15.4321 15.5403 13.9584 17.3582 13.9584H17.3912C19.2091 13.9584 20.6828 15.4321 20.6828 17.2501C20.6828 19.068 19.2091 20.5417 17.3912 20.5417H17.3582C15.5403 20.5417 14.0666 19.068 14.0666 17.2501ZM3.79222 43.1841C5.64414 41.3322 8.15589 40.2918 10.7749 40.2918H17.3582C19.1762 40.2918 20.6499 41.7655 20.6499 43.5834C20.6499 45.4014 19.1762 46.8751 17.3582 46.8751H10.7749C9.9019 46.8751 9.06465 47.2219 8.44734 47.8392C7.83004 48.4565 7.48324 49.2937 7.48324 50.1668V63.3334C7.48324 64.2064 7.83004 65.0437 8.44734 65.661C9.06465 66.2783 9.9019 66.6251 10.7749 66.6251H63.4416C64.3146 66.6251 65.1518 66.2783 65.7691 65.661C66.3864 65.0437 66.7332 64.2064 66.7332 63.3334V50.1668C66.7332 49.2938 66.3864 48.4565 65.7691 47.8392C65.1518 47.2219 64.3146 46.8751 63.4416 46.8751H56.8582C55.0403 46.8751 53.5666 45.4014 53.5666 43.5834C53.5666 41.7655 55.0403 40.2918 56.8582 40.2918H63.4416C66.0606 40.2918 68.5723 41.3322 70.4243 43.1841C72.2762 45.036 73.3166 47.5477 73.3166 50.1668V63.3334C73.3166 65.9524 72.2762 68.4642 70.4243 70.3161C68.5723 72.168 66.0606 73.2084 63.4416 73.2084H10.7749C8.15589 73.2084 5.64414 72.168 3.79222 70.3161C1.9403 68.4642 0.899902 65.9524 0.899902 63.3334V50.1668C0.899902 47.5477 1.9403 45.036 3.79222 43.1841ZM14.0666 56.7501C14.0666 54.9321 15.5403 53.4584 17.3582 53.4584H17.3912C19.2091 53.4584 20.6828 54.9321 20.6828 56.7501C20.6828 58.568 19.2091 60.0418 17.3912 60.0418H17.3582C15.5403 60.0418 14.0666 58.568 14.0666 56.7501Z" fill="#E6485B"/>
<path fill-rule="evenodd" clip-rule="evenodd" d="M42.2259 14.5112C43.7385 15.5196 44.1472 17.5633 43.1388 19.0759L33.3839 33.7084H46.9833C48.1973 33.7084 49.3127 34.3765 49.8855 35.4468C50.4583 36.5171 50.3955 37.8158 49.7222 38.8259L36.5555 58.5759C35.5471 60.0885 33.5034 60.4973 31.9908 59.4889C30.4782 58.4804 30.0694 56.4367 31.0778 54.9241L40.8328 40.2917H27.2333C26.0194 40.2917 24.904 39.6235 24.3311 38.5532C23.7583 37.4829 23.8211 36.1842 24.4945 35.1741L37.6612 15.4241C38.6696 13.9115 40.7133 13.5028 42.2259 14.5112Z" fill="#E6485B"/>
</svg>
