<svg width="25" height="25" viewBox="0 0 25 25" fill="none" xmlns="http://www.w3.org/2000/svg">
<path d="M23 6.5H19.925C19.55 4.775 18.05 3.5 16.25 3.5C14.45 3.5 12.95 4.775 12.575 6.5H2V8H12.575C12.95 9.725 14.45 11 16.25 11C18.05 11 19.55 9.725 19.925 8H23V6.5ZM16.25 9.5C14.975 9.5 14 8.525 14 7.25C14 5.975 14.975 5 16.25 5C17.525 5 18.5 5.975 18.5 7.25C18.5 8.525 17.525 9.5 16.25 9.5ZM2 18.5H5.075C5.45 20.225 6.95 21.5 8.75 21.5C10.55 21.5 12.05 20.225 12.425 18.5H23V17H12.425C12.05 15.275 10.55 14 8.75 14C6.95 14 5.45 15.275 5.075 17H2V18.5ZM8.75 15.5C10.025 15.5 11 16.475 11 17.75C11 19.025 10.025 20 8.75 20C7.475 20 6.5 19.025 6.5 17.75C6.5 16.475 7.475 15.5 8.75 15.5Z" fill="white"/>
</svg>
