<svg width="21" height="5" viewBox="0 0 21 5" fill="none" xmlns="http://www.w3.org/2000/svg">
<path d="M3 4.75C2.40326 4.75 1.83097 4.51295 1.40901 4.09099C0.987053 3.66903 0.75 3.09674 0.75 2.5C0.75 1.90326 0.987053 1.33097 1.40901 0.909009C1.83097 0.487053 2.40326 0.25 3 0.25C3.59674 0.25 4.16903 0.487053 4.59099 0.909009C5.01295 1.33097 5.25 1.90326 5.25 2.5C5.25 3.09674 5.01295 3.66903 4.59099 4.09099C4.16903 4.51295 3.59674 4.75 3 4.75ZM10.5 4.75C9.90326 4.75 9.33097 4.51295 8.90901 4.09099C8.48705 3.66903 8.25 3.09674 8.25 2.5C8.25 1.90326 8.48705 1.33097 8.90901 0.909009C9.33097 0.487053 9.90326 0.25 10.5 0.25C11.0967 0.25 11.669 0.487053 12.091 0.909009C12.5129 1.33097 12.75 1.90326 12.75 2.5C12.75 3.09674 12.5129 3.66903 12.091 4.09099C11.669 4.51295 11.0967 4.75 10.5 4.75ZM18 4.75C17.4033 4.75 16.831 4.51295 16.409 4.09099C15.9871 3.66903 15.75 3.09674 15.75 2.5C15.75 1.90326 15.9871 1.33097 16.409 0.909009C16.831 0.487053 17.4033 0.25 18 0.25C18.5967 0.25 19.169 0.487053 19.591 0.909009C20.0129 1.33097 20.25 1.90326 20.25 2.5C20.25 3.09674 20.0129 3.66903 19.591 4.09099C19.169 4.51295 18.5967 4.75 18 4.75Z" fill="#251E29"/>
</svg>
