<svg width="25" height="25" viewBox="0 0 25 25" fill="none" xmlns="http://www.w3.org/2000/svg">
<path d="M12.6477 11.2577C12.6302 11.2353 12.6078 11.2172 12.5822 11.2047C12.5566 11.1923 12.5285 11.1858 12.5001 11.1858C12.4716 11.1858 12.4435 11.1923 12.4179 11.2047C12.3923 11.2172 12.3699 11.2353 12.3524 11.2577L9.7274 14.5788C9.70576 14.6065 9.69233 14.6396 9.68865 14.6745C9.68497 14.7094 9.69119 14.7447 9.70659 14.7762C9.722 14.8078 9.74596 14.8343 9.77575 14.8529C9.80554 14.8714 9.83996 14.8812 9.87506 14.8812H11.6071V20.5624C11.6071 20.6655 11.6915 20.7499 11.7946 20.7499H13.2008C13.304 20.7499 13.3883 20.6655 13.3883 20.5624V14.8835H15.1251C15.2821 14.8835 15.3688 14.703 15.2727 14.5812L12.6477 11.2577Z" fill="#251E29"/>
<path d="M19.5172 9.09453C18.4438 6.26328 15.7086 4.25 12.5047 4.25C9.30078 4.25 6.56563 6.26094 5.49219 9.09219C3.48359 9.61953 2 11.45 2 13.625C2 16.2148 4.09766 18.3125 6.68516 18.3125H7.625C7.72813 18.3125 7.8125 18.2281 7.8125 18.125V16.7188C7.8125 16.6156 7.72813 16.5312 7.625 16.5312H6.68516C5.89531 16.5312 5.15234 16.2172 4.59922 15.6477C4.04844 15.0805 3.75547 14.3164 3.78125 13.5242C3.80234 12.9055 4.01328 12.3242 4.39531 11.8344C4.78672 11.3352 5.33516 10.9719 5.94453 10.8102L6.83281 10.5781L7.15859 9.72031C7.36016 9.18594 7.64141 8.68672 7.99531 8.23438C8.3447 7.78603 8.75857 7.39191 9.22344 7.06484C10.1867 6.3875 11.3211 6.02891 12.5047 6.02891C13.6883 6.02891 14.8227 6.3875 15.7859 7.06484C16.2523 7.39297 16.6648 7.78672 17.0141 8.23438C17.368 8.68672 17.6492 9.18828 17.8508 9.72031L18.1742 10.5758L19.0602 10.8102C20.3305 11.1523 21.2188 12.3078 21.2188 13.625C21.2188 14.4008 20.9164 15.132 20.368 15.6805C20.099 15.951 19.7791 16.1655 19.4266 16.3115C19.0742 16.4576 18.6963 16.5323 18.3148 16.5312H17.375C17.2719 16.5312 17.1875 16.6156 17.1875 16.7188V18.125C17.1875 18.2281 17.2719 18.3125 17.375 18.3125H18.3148C20.9023 18.3125 23 16.2148 23 13.625C23 11.4523 21.5211 9.62422 19.5172 9.09453Z" fill="#251E29"/>
</svg>
