<svg width="69" height="70" viewBox="0 0 69 70" fill="none" xmlns="http://www.w3.org/2000/svg">
<path d="M32.3 12.2495C32.3 16.0411 30.9054 19.5029 28.6026 22.1609C30.3373 23.1348 32.2973 23.6386 34.2876 23.6222C36.278 23.6057 38.2294 23.0695 39.9476 22.067C41.6658 21.0645 43.0911 19.6305 44.0815 17.9078C45.072 16.1851 45.5931 14.2336 45.5931 12.2476C45.5931 10.2615 45.072 8.31003 44.0815 6.58731C43.0911 4.86458 41.6658 3.43064 39.9476 2.42811C38.2294 1.42558 36.278 0.889417 34.2876 0.87295C32.2973 0.856482 30.3373 1.36029 28.6026 2.33425C30.9054 4.996 32.3 8.46158 32.3 12.2495Z" fill="#48BDFF"/>
<path fill-rule="evenodd" clip-rule="evenodd" d="M28.5 12.2495C28.5 13.7432 28.2051 15.2224 27.6322 16.6025C27.0593 17.9826 26.2196 19.2365 25.161 20.2928C24.1024 21.3491 22.8457 22.1869 21.4626 22.7586C20.0795 23.3302 18.5971 23.6245 17.1 23.6245C15.6029 23.6245 14.1205 23.3302 12.7374 22.7586C11.3543 22.1869 10.0976 21.3491 9.03898 20.2928C7.9804 19.2365 7.14068 17.9826 6.56777 16.6025C5.99487 15.2224 5.7 13.7432 5.7 12.2495C5.7 9.23262 6.90107 6.33934 9.03898 4.20612C11.1769 2.07289 14.0765 0.874455 17.1 0.874455C20.1235 0.874455 23.0231 2.07289 25.161 4.20612C27.2989 6.33934 28.5 9.23262 28.5 12.2495ZM6.65 27.4161C4.88631 27.4161 3.19486 28.1152 1.94774 29.3596C0.700623 30.604 0 32.2917 0 34.0515V52.062C-4.73226e-08 54.3026 0.442305 56.5214 1.30166 58.5915C2.16102 60.6616 3.42059 62.5426 5.00847 64.127C6.59636 65.7114 8.48145 66.9682 10.5561 67.8256C12.6308 68.6831 14.8544 69.1245 17.1 69.1245C19.3456 69.1245 21.5692 68.6831 23.6439 67.8256C25.7186 66.9682 27.6036 65.7114 29.1915 64.127C30.7794 62.5426 32.039 60.6616 32.8983 58.5915C33.7577 56.5214 34.2 54.3026 34.2 52.062V34.0515C34.2 32.2917 33.4994 30.604 32.2523 29.3596C31.0051 28.1152 29.3137 27.4161 27.55 27.4161H6.65ZM46.968 68.5709C49.5004 66.6246 51.5508 64.1238 52.9608 61.2613C54.3707 58.3989 55.1027 55.2514 55.1 52.062V34.0515C55.1 31.5301 54.2032 29.221 52.7098 27.4161H61.75C65.4208 27.4161 68.4 30.3888 68.4 34.0515V52.062C68.4005 54.6712 67.8012 57.2458 66.6482 59.5878C65.4953 61.9297 63.8194 63.9767 61.7495 65.5711C59.6795 67.1656 57.2707 68.2651 54.7081 68.7851C52.1456 69.3052 49.4977 69.2319 46.968 68.5709ZM49.4 12.2495C49.4 16.0411 48.0054 19.5029 45.7026 22.1609C47.4373 23.1348 49.3973 23.6386 51.3876 23.6222C53.378 23.6057 55.3294 23.0695 57.0476 22.067C58.7658 21.0645 60.1911 19.6305 61.1815 17.9078C62.172 16.1851 62.6931 14.2336 62.6931 12.2476C62.6931 10.2615 62.172 8.31003 61.1815 6.58731C60.1911 4.86458 58.7658 3.43064 57.0476 2.42811C55.3294 1.42558 53.378 0.889417 51.3876 0.87295C49.3973 0.856482 47.4373 1.36029 45.7026 2.33425C48.0054 4.996 49.4 8.46158 49.4 12.2495Z" fill="#251E29"/>
<path d="M29.868 68.5709C32.4004 66.6246 34.4508 64.1238 35.8608 61.2613C37.2707 58.3989 38.0027 55.2514 38 52.062V34.0515C38 31.5301 37.1032 29.221 35.6098 27.4161H44.65C48.3208 27.4161 51.3 30.3888 51.3 34.0515V52.062C51.3005 54.6712 50.7012 57.2458 49.5482 59.5878C48.3953 61.9297 46.7194 63.9767 44.6495 65.5711C42.5795 67.1656 40.1707 68.2651 37.6081 68.7851C35.0456 69.3052 32.3977 69.2319 29.868 68.5709Z" fill="#48BDFF"/>
</svg>
