<svg width="4606" height="2885" viewBox="0 0 4606 2885" fill="none" xmlns="http://www.w3.org/2000/svg">
<g opacity="0.15">
<path opacity="0.2" d="M1205.98 1908.43L953.879 2157.96C876.346 2234.71 856.725 2352.5 905.197 2450.23C949.494 2539.54 1042.11 2594.52 1141.73 2590.64L3115.75 2513.8C3534.54 2497.5 3864.28 2150.83 3859.62 1731.75L3857.5 1541.43C3854.6 1280.85 3667.17 1058.99 3410.73 1012.59C3335.75 999.028 3258.75 1001.38 3184.74 1019.49L2962.26 1073.94C2763.01 1122.71 2584.62 1234.02 2453.24 1391.56L2155.36 1748.77C2035.91 1892 1832.04 1931.16 1668.03 1842.36C1516.28 1760.2 1328.63 1787.03 1205.98 1908.43Z" fill="url(#paint0_linear_459_4019)"/>
<path opacity="0.2" d="M674.526 1840.12L344.704 2234.11C243.289 2355.25 230.906 2527.75 313.977 2662.13C389.924 2785 530.944 2851.81 674.124 2832.75L3626.28 2439.92C4163.01 2368.5 4545.4 1882.86 4488.92 1344.35L4447.83 952.579C4408.47 577.286 4108.31 282.725 3732.35 250.435C3622.37 240.989 3511.64 254.779 3407.34 290.909L2972.76 441.451C2770.8 511.409 2596.58 644.232 2475.62 820.444L2021.7 1481.74C1868.86 1704.41 1580.2 1788.39 1331.76 1682.48C1101.88 1584.47 834.939 1648.5 674.526 1840.12Z" fill="url(#paint1_linear_459_4019)"/>
<path opacity="0.2" d="M724.204 1083.65L490.867 1314.91C355.929 1448.64 302.056 1643.92 349.335 1827.93C413.921 2079.29 649.625 2248.02 908.387 2228.13L2896.28 2075.33C3405.52 2036.19 3803.43 1619.59 3819.17 1109.09L3833.22 653.24C3842.69 346.127 3625.97 78.3353 3323.63 23.5656C3237.93 8.04121 3149.93 10.7311 3065.34 31.4603L2755.75 107.327C2548.08 158.219 2362.19 274.332 2225.36 438.63L1845.23 895.058C1704.27 1064.31 1463.46 1110.57 1269.82 1005.6C1090.63 908.462 868.97 940.171 724.204 1083.65Z" fill="url(#paint2_linear_459_4019)"/>
</g>
<defs>
<linearGradient id="paint0_linear_459_4019" x1="1038.03" y1="2408.93" x2="2463.74" y2="380.963" gradientUnits="userSpaceOnUse">
<stop stop-color="#7600D1"/>
<stop offset="1" stop-color="#00C1A4"/>
</linearGradient>
<linearGradient id="paint1_linear_459_4019" x1="499.951" y1="2584.69" x2="2282.65" y2="-532.128" gradientUnits="userSpaceOnUse">
<stop stop-color="#7600D1"/>
<stop offset="1" stop-color="#00C1A4"/>
</linearGradient>
<linearGradient id="paint2_linear_459_4019" x1="524.486" y1="1997.38" x2="2629.71" y2="-498.669" gradientUnits="userSpaceOnUse">
<stop stop-color="#7600D1"/>
<stop offset="1" stop-color="#00C1A4"/>
</linearGradient>
</defs>
</svg>
