<svg width="33" height="38" viewBox="0 0 33 38" fill="none" xmlns="http://www.w3.org/2000/svg">
    <path d="M32.342 9.10381L19.3738 1.51267C18.7071 1.12244 17.8686 1.60322 17.8686 2.37569V17.582C17.8686 17.9371 18.0569 18.2656 18.3634 18.445L31.3316 26.0361C31.9983 26.4263 32.8368 25.9456 32.8368 25.1731V9.96682C32.8368 9.6117 32.6484 9.28321 32.342 9.10381Z" fill="#7600D1"/>
    <path fill-rule="evenodd" clip-rule="evenodd" d="M14.9682 19.8448V4.0652C14.9682 3.29274 14.1297 2.81195 13.463 3.20219L0.494821 10.7933C0.188342 10.9727 0 11.3012 0 11.6563V28.6067L14.9682 19.8448Z" fill="#45404A"/>
    <path d="M14.9682 19.8448L0 28.6067L14.4628 37.0727C14.7749 37.2553 15.1612 37.2553 15.4732 37.0727L28.4618 29.469C29.1215 29.0828 29.1215 28.1292 28.4617 27.743L14.9682 19.8448Z" fill="#3A353F"/>
</svg>
