<svg width="14" height="14" viewBox="0 0 14 14" fill="none" xmlns="http://www.w3.org/2000/svg">
<path fill-rule="evenodd" clip-rule="evenodd" d="M13 0.00634766C13.5523 0.00634766 14 0.454063 14 1.00635V6.8357C14 9.04483 12.2091 10.8357 10 10.8357H3.43701L4.90241 12.2818C5.29551 12.6697 5.2997 13.3029 4.91177 13.696C4.52384 14.0891 3.89069 14.0933 3.49759 13.7054L0.297591 10.5475C0.107183 10.3596 0 10.1032 0 9.8357C0 9.56818 0.107183 9.31182 0.297591 9.12392L3.49759 5.96603C3.89069 5.5781 4.52384 5.58229 4.91177 5.97539C5.2997 6.36849 5.29551 7.00165 4.90241 7.38958L3.43701 8.8357H10C11.1046 8.8357 12 7.94027 12 6.8357V1.00635C12 0.454063 12.4477 0.00634766 13 0.00634766Z" fill="#000001"/>
</svg>
