<svg width="24" height="24" viewBox="0 0 24 24" fill="none" xmlns="http://www.w3.org/2000/svg">
<path fill-rule="evenodd" clip-rule="evenodd" d="M18 5.00635C18.5523 5.00635 19 5.45406 19 6.00635V11.8357C19 14.0448 17.2091 15.8357 15 15.8357H8.43701L9.90241 17.2818C10.2955 17.6697 10.2997 18.3029 9.91177 18.696C9.52384 19.0891 8.89069 19.0933 8.49759 18.7054L5.29759 15.5475C5.10718 15.3596 5 15.1032 5 14.8357C5 14.5682 5.10718 14.3118 5.29759 14.1239L8.49759 10.966C8.89069 10.5781 9.52384 10.5823 9.91177 10.9754C10.2997 11.3685 10.2955 12.0016 9.90241 12.3896L8.43701 13.8357H15C16.1046 13.8357 17 12.9403 17 11.8357V6.00635C17 5.45406 17.4477 5.00635 18 5.00635Z" fill="#000001"/>
</svg>

