<svg width="24" height="24" viewBox="0 0 24 24" fill="none" xmlns="http://www.w3.org/2000/svg">
<path d="M20.8125 18.5625H4.8875C4.77704 18.5625 4.6875 18.473 4.6875 18.3625V3.9375C4.6875 3.83437 4.60312 3.75 4.5 3.75H3.1875C3.08437 3.75 3 3.83437 3 3.9375V20.0625C3 20.1656 3.08437 20.25 3.1875 20.25H20.8125C20.9156 20.25 21 20.1656 21 20.0625V18.75C21 18.6469 20.9156 18.5625 20.8125 18.5625ZM6.75 16.6875H8.0625C8.16563 16.6875 8.25 16.6031 8.25 16.5V13.125C8.25 13.0219 8.16563 12.9375 8.0625 12.9375H6.75C6.64687 12.9375 6.5625 13.0219 6.5625 13.125V16.5C6.5625 16.6031 6.64687 16.6875 6.75 16.6875ZM10.3125 16.6875H11.625C11.7281 16.6875 11.8125 16.6031 11.8125 16.5V9C11.8125 8.89687 11.7281 8.8125 11.625 8.8125H10.3125C10.2094 8.8125 10.125 8.89687 10.125 9V16.5C10.125 16.6031 10.2094 16.6875 10.3125 16.6875ZM13.875 16.6875H15.1875C15.2906 16.6875 15.375 16.6031 15.375 16.5V10.8281C15.375 10.725 15.2906 10.6406 15.1875 10.6406H13.875C13.7719 10.6406 13.6875 10.725 13.6875 10.8281V16.5C13.6875 16.6031 13.7719 16.6875 13.875 16.6875ZM17.4375 16.6875H18.75C18.8531 16.6875 18.9375 16.6031 18.9375 16.5V7.125C18.9375 7.02187 18.8531 6.9375 18.75 6.9375H17.4375C17.3344 6.9375 17.25 7.02187 17.25 7.125V16.5C17.25 16.6031 17.3344 16.6875 17.4375 16.6875Z" fill="#000001"/>
</svg>
