<svg width="24" height="24" viewBox="0 0 24 24" fill="none" xmlns="http://www.w3.org/2000/svg">
<path d="M7.872 13.4955C8.16977 13.4955 8.45535 13.3772 8.6659 13.1667C8.87646 12.9561 8.99475 12.6705 8.99475 12.3727C8.99475 12.075 8.87646 11.7894 8.6659 11.5788C8.45535 11.3683 8.16977 11.25 7.872 11.25C7.57423 11.25 7.28865 11.3683 7.0781 11.5788C6.86754 11.7894 6.74925 12.075 6.74925 12.3727C6.74925 12.6705 6.86754 12.9561 7.0781 13.1667C7.28865 13.3772 7.57423 13.4955 7.872 13.4955ZM8.9955 16.1235C8.9955 16.4213 8.87721 16.7068 8.66665 16.9174C8.4561 17.128 8.17052 17.2463 7.87275 17.2463C7.57498 17.2463 7.2894 17.128 7.07885 16.9174C6.86829 16.7068 6.75 16.4213 6.75 16.1235C6.75 15.8257 6.86829 15.5402 7.07885 15.3296C7.2894 15.119 7.57498 15.0007 7.87275 15.0007C8.17052 15.0007 8.4561 15.119 8.66665 15.3296C8.87721 15.5402 8.9955 15.8257 8.9955 16.1235ZM12 13.4955C12.2978 13.4955 12.5833 13.3772 12.7939 13.1667C13.0045 12.9561 13.1227 12.6705 13.1227 12.3727C13.1227 12.075 13.0045 11.7894 12.7939 11.5788C12.5833 11.3683 12.2978 11.25 12 11.25C11.7022 11.25 11.4167 11.3683 11.2061 11.5788C10.9955 11.7894 10.8773 12.075 10.8773 12.3727C10.8773 12.6705 10.9955 12.9561 11.2061 13.1667C11.4167 13.3772 11.7022 13.4955 12 13.4955ZM13.1235 16.1235C13.1235 16.4213 13.0052 16.7068 12.7947 16.9174C12.5841 17.128 12.2985 17.2463 12.0007 17.2463C11.703 17.2463 11.4174 17.128 11.2068 16.9174C10.9963 16.7068 10.878 16.4213 10.878 16.1235C10.878 15.8257 10.9963 15.5402 11.2068 15.3296C11.4174 15.119 11.703 15.0007 12.0007 15.0007C12.2985 15.0007 12.5841 15.119 12.7947 15.3296C13.0052 15.5402 13.1235 15.8257 13.1235 16.1235ZM16.1235 13.4955C16.4213 13.4955 16.7068 13.3772 16.9174 13.1667C17.128 12.9561 17.2463 12.6705 17.2463 12.3727C17.2463 12.075 17.128 11.7894 16.9174 11.5788C16.7068 11.3683 16.4213 11.25 16.1235 11.25C15.8257 11.25 15.5402 11.3683 15.3296 11.5788C15.119 11.7894 15.0007 12.075 15.0007 12.3727C15.0007 12.6705 15.119 12.9561 15.3296 13.1667C15.5402 13.3772 15.8257 13.4955 16.1235 13.4955ZM21 6.75C21 5.75544 20.6049 4.80161 19.9016 4.09835C19.1984 3.39509 18.2446 3 17.25 3H6.75C5.75544 3 4.80161 3.39509 4.09835 4.09835C3.39509 4.80161 3 5.75544 3 6.75V17.25C3 18.2446 3.39509 19.1984 4.09835 19.9016C4.80161 20.6049 5.75544 21 6.75 21H17.25C18.2446 21 19.1984 20.6049 19.9016 19.9016C20.6049 19.1984 21 18.2446 21 17.25V6.75ZM4.5 9H19.5V17.25C19.5 17.8467 19.2629 18.419 18.841 18.841C18.419 19.2629 17.8467 19.5 17.25 19.5H6.75C6.15326 19.5 5.58097 19.2629 5.15901 18.841C4.73705 18.419 4.5 17.8467 4.5 17.25V9ZM6.75 4.5H17.25C17.8467 4.5 18.419 4.73705 18.841 5.15901C19.2629 5.58097 19.5 6.15326 19.5 6.75V7.5H4.5V6.75C4.5 6.15326 4.73705 5.58097 5.15901 5.15901C5.58097 4.73705 6.15326 4.5 6.75 4.5Z" fill="#000001"/>
</svg>
