<svg width="24" height="24" viewBox="0 0 24 24" fill="none" xmlns="http://www.w3.org/2000/svg">
<path d="M20.25 12.1404H11.8594V3.74974C11.8594 3.64661 11.775 3.56224 11.6719 3.56224H11.0625C9.83134 3.56022 8.61192 3.80166 7.47441 4.27268C6.3369 4.74369 5.30374 5.43498 4.43439 6.30677C3.57824 7.16027 2.89607 8.17198 2.4258 9.28567C1.93643 10.4408 1.68532 11.6828 1.68751 12.9372C1.6855 14.1684 1.92694 15.3878 2.39796 16.5253C2.86897 17.6629 3.56026 18.696 4.43205 19.5654C5.2922 20.4255 6.29533 21.1029 7.41095 21.574C8.56604 22.0633 9.80804 22.3144 11.0625 22.3122C12.2937 22.3143 13.5131 22.0728 14.6506 21.6018C15.7881 21.1308 16.8213 20.4395 17.6906 19.5677C18.5508 18.7075 19.2281 17.7044 19.6992 16.5888C20.1886 15.4337 20.4397 14.1917 20.4375 12.9372V12.3279C20.4375 12.2247 20.3531 12.1404 20.25 12.1404ZM16.5399 18.4638C15.8141 19.1839 14.9534 19.7537 14.0071 20.1406C13.0607 20.5275 12.0474 20.7239 11.025 20.7185C8.96017 20.7091 7.01955 19.9005 5.55939 18.4404C4.08986 16.9708 3.28126 15.0161 3.28126 12.9372C3.28126 10.8583 4.08986 8.90364 5.55939 7.43411C6.83908 6.15442 8.48673 5.37395 10.2656 5.19583V13.7341H18.8039C18.6235 15.5224 17.836 17.1794 16.5399 18.4638V18.4638ZM22.3125 10.8372L22.2516 10.1763C22.0524 8.0177 21.0938 5.98099 19.5516 4.44349C18.0083 2.90316 15.9758 1.94989 13.8047 1.74817L13.1414 1.68724C13.0313 1.67786 12.9375 1.76224 12.9375 1.87239V10.8747C12.9375 10.9779 13.0219 11.0622 13.125 11.0622L22.125 11.0388C22.2352 11.0388 22.3219 10.945 22.3125 10.8372ZM14.5266 9.47317V3.45911C16.003 3.76813 17.3579 4.49931 18.4266 5.5638C19.4977 6.63255 20.2313 7.99192 20.536 9.45677L14.5266 9.47317Z" fill="#251E29"/>
</svg>
