<svg width="24" height="24" viewBox="0 0 24 24" fill="none" xmlns="http://www.w3.org/2000/svg">
<path d="M2.0035 11.676C2.00771 11.6809 2.01211 11.6856 2.01669 11.6902L8.97003 18.6369C9.06769 18.7344 9.22595 18.7344 9.32354 18.6367L21.9769 5.97674C21.9814 5.97221 21.9858 5.9675 21.9899 5.96262C22.1401 5.78727 22.2186 5.5617 22.2097 5.33099C22.2008 5.10029 22.1051 4.88145 21.9419 4.71819C21.7786 4.55494 21.5598 4.4593 21.3291 4.45039C21.0984 4.44148 20.8728 4.51995 20.6974 4.67013C20.6926 4.67428 20.6879 4.67862 20.6834 4.68313L9.13349 16.2199L3.31016 10.3966C3.30561 10.392 3.30089 10.3876 3.296 10.3835C3.12064 10.2333 2.89507 10.1548 2.66437 10.1637C2.43366 10.1726 2.21482 10.2683 2.05157 10.4315C1.88831 10.5948 1.79268 10.8136 1.78376 11.0443C1.77485 11.275 1.85333 11.5006 2.0035 11.676Z" fill="#000001" stroke="#000001" stroke-width="0.5" stroke-linejoin="round"/>
</svg>
