<svg width="8" height="9" viewBox="0 0 8 9" fill="none" xmlns="http://www.w3.org/2000/svg">
<path d="M0.541283 4.50023C0.545495 4.50515 0.549897 4.5099 0.554477 4.51448L2.87226 6.83004C2.96992 6.92761 3.12818 6.92755 3.22577 6.82991L7.44355 2.6099C7.44808 2.60537 7.45244 2.60066 7.45661 2.59579C7.53397 2.50545 7.5744 2.38925 7.56981 2.2704C7.56522 2.15155 7.51595 2.03882 7.43185 1.95472C7.34775 1.87062 7.23501 1.82135 7.11616 1.81676C6.99732 1.81217 6.88111 1.85259 6.79078 1.92996C6.78593 1.93411 6.78124 1.93845 6.77672 1.94296L3.0446 5.67083L1.22128 3.84751C1.21673 3.84296 1.212 3.83859 1.20712 3.8344C1.11678 3.75704 1.00058 3.71661 0.881731 3.7212C0.762884 3.72579 0.650146 3.77506 0.566045 3.85916C0.481945 3.94326 0.432677 4.056 0.428086 4.17485C0.423496 4.29369 0.463921 4.4099 0.541283 4.50023Z" fill="#7600D1" stroke="#7600D1" stroke-width="0.5" stroke-linejoin="round"/>
</svg>
