<svg width="24" height="24" viewBox="0 0 24 24" fill="none" xmlns="http://www.w3.org/2000/svg">
<path d="M20.9993 1.5H17.2493V3H20.9993V21H17.2493V22.5H20.9993C21.3968 22.4988 21.7776 22.3404 22.0587 22.0593C22.3397 21.7783 22.4981 21.3975 22.4993 21V3C22.4981 2.60254 22.3397 2.2217 22.0587 1.94065C21.7776 1.6596 21.3968 1.50119 20.9993 1.5ZM10.4993 12.75H5.99932C5.89926 12.744 5.79907 12.7593 5.70535 12.7948C5.61163 12.8304 5.52652 12.8854 5.45563 12.9563C5.38475 13.0272 5.32972 13.1123 5.29415 13.206C5.25859 13.2997 5.24331 13.3999 5.24932 13.5V18C5.24331 18.1001 5.25859 18.2003 5.29415 18.294C5.32972 18.3877 5.38475 18.4728 5.45563 18.5437C5.52652 18.6146 5.61163 18.6696 5.70535 18.7052C5.79907 18.7407 5.89926 18.756 5.99932 18.75H10.4993C10.5994 18.756 10.6996 18.7407 10.7933 18.7052C10.887 18.6696 10.9721 18.6146 11.043 18.5437C11.1139 18.4728 11.1689 18.3877 11.2045 18.294C11.2401 18.2003 11.2553 18.1001 11.2493 18V13.5C11.2553 13.3999 11.2401 13.2997 11.2045 13.206C11.1689 13.1123 11.1139 13.0272 11.043 12.9563C10.9721 12.8854 10.887 12.8304 10.7933 12.7948C10.6996 12.7593 10.5994 12.744 10.4993 12.75ZM9.74932 17.25H6.74932V14.25H9.74932V17.25Z" fill="black"/>
<path d="M18.7493 18.0003V13.5003C18.7553 13.4002 18.7401 13.3 18.7045 13.2063C18.6689 13.1126 18.6139 13.0275 18.543 12.9566C18.4721 12.8857 18.387 12.8307 18.2933 12.7951C18.1996 12.7596 18.0994 12.7443 17.9993 12.7503H13.4993C13.3993 12.7443 13.2991 12.7596 13.2053 12.7951C13.1116 12.8307 13.0265 12.8857 12.9556 12.9566C12.8848 13.0275 12.8297 13.1126 12.7942 13.2063C12.7586 13.3 12.7433 13.4002 12.7493 13.5003V18.0003C12.7433 18.1004 12.7586 18.2006 12.7942 18.2943C12.8297 18.388 12.8848 18.4731 12.9556 18.544C13.0265 18.6149 13.1116 18.6699 13.2053 18.7055C13.2991 18.741 13.3993 18.7563 13.4993 18.7503H17.9993C18.1981 18.7499 18.3887 18.6708 18.5292 18.5302C18.6698 18.3896 18.7489 18.1991 18.7493 18.0003ZM17.2493 17.2503H14.2493V14.2503H17.2493V17.2503ZM10.4993 5.2503H5.99932C5.89926 5.24429 5.79907 5.25956 5.70535 5.29513C5.61163 5.33069 5.52652 5.38573 5.45563 5.45661C5.38475 5.52749 5.32972 5.6126 5.29415 5.70632C5.25859 5.80004 5.24331 5.90024 5.24932 6.0003V10.5003C5.24331 10.6004 5.25859 10.7006 5.29415 10.7943C5.32972 10.888 5.38475 10.9731 5.45563 11.044C5.52652 11.1149 5.61163 11.1699 5.70535 11.2055C5.79907 11.241 5.89926 11.2563 5.99932 11.2503H10.4993C10.5994 11.2563 10.6996 11.241 10.7933 11.2055C10.887 11.1699 10.9721 11.1149 11.043 11.044C11.1139 10.9731 11.1689 10.888 11.2045 10.7943C11.2401 10.7006 11.2553 10.6004 11.2493 10.5003V6.0003C11.2553 5.90024 11.2401 5.80004 11.2045 5.70632C11.1689 5.6126 11.1139 5.52749 11.043 5.45661C10.9721 5.38573 10.887 5.33069 10.7933 5.29513C10.6996 5.25956 10.5994 5.24429 10.4993 5.2503ZM9.74932 9.7503H6.74932V6.7503H9.74932V9.7503ZM13.4993 11.2503H17.9993C18.0994 11.2563 18.1996 11.241 18.2933 11.2055C18.387 11.1699 18.4721 11.1149 18.543 11.044C18.6139 10.9731 18.6689 10.888 18.7045 10.7943C18.7401 10.7006 18.7553 10.6004 18.7493 10.5003V6.0003C18.7553 5.90024 18.7401 5.80004 18.7045 5.70632C18.6689 5.6126 18.6139 5.52749 18.543 5.45661C18.4721 5.38573 18.387 5.33069 18.2933 5.29513C18.1996 5.25956 18.0994 5.24429 17.9993 5.2503H13.4993C13.3993 5.24429 13.2991 5.25956 13.2053 5.29513C13.1116 5.33069 13.0265 5.38573 12.9556 5.45661C12.8848 5.52749 12.8297 5.6126 12.7942 5.70632C12.7586 5.80004 12.7433 5.90024 12.7493 6.0003V10.5003C12.7497 10.6991 12.8289 10.8896 12.9694 11.0302C13.11 11.1708 13.3005 11.2499 13.4993 11.2503ZM14.2493 6.7503H17.2493V9.7503H14.2493V6.7503Z" fill="black"/>
<path d="M3 3H6.75V1.5H3C2.60254 1.50119 2.2217 1.6596 1.94065 1.94065C1.6596 2.2217 1.50119 2.60254 1.5 3V21C1.50119 21.3975 1.6596 21.7783 1.94065 22.0593C2.2217 22.3404 2.60254 22.4988 3 22.5H6.75V21H3V3Z" fill="black"/>
</svg>
