<svg width="24" height="24" viewBox="0 0 24 24" fill="none" xmlns="http://www.w3.org/2000/svg">
<path d="M21.0001 1.5H17.2501V3H21.0001V21H17.2501V22.5H21.0001C21.3975 22.4988 21.7784 22.3404 22.0594 22.0593C22.3405 21.7783 22.4989 21.3975 22.5001 21V3C22.4989 2.60254 22.3405 2.2217 22.0594 1.94065C21.7784 1.6596 21.3975 1.50119 21.0001 1.5ZM10.5001 12.75H6.00006C5.9 12.744 5.7998 12.7593 5.70608 12.7948C5.61236 12.8304 5.52725 12.8854 5.45637 12.9563C5.38549 13.0272 5.33045 13.1123 5.29488 13.206C5.25932 13.2997 5.24404 13.3999 5.25006 13.5V18C5.24404 18.1001 5.25932 18.2003 5.29488 18.294C5.33045 18.3877 5.38549 18.4728 5.45637 18.5437C5.52725 18.6146 5.61236 18.6696 5.70608 18.7052C5.7998 18.7407 5.9 18.756 6.00006 18.75H10.5001C10.6001 18.756 10.7003 18.7407 10.794 18.7052C10.8878 18.6696 10.9729 18.6146 11.0437 18.5437C11.1146 18.4728 11.1697 18.3877 11.2052 18.294C11.2408 18.2003 11.2561 18.1001 11.2501 18V13.5C11.2561 13.3999 11.2408 13.2997 11.2052 13.206C11.1697 13.1123 11.1146 13.0272 11.0437 12.9563C10.9729 12.8854 10.8878 12.8304 10.794 12.7948C10.7003 12.7593 10.6001 12.744 10.5001 12.75ZM9.75006 17.25H6.75006V14.25H9.75006V17.25Z" fill="#000001"/>
<path d="M18.7501 18V13.5C18.7561 13.3999 18.7408 13.2997 18.7052 13.206C18.6697 13.1123 18.6146 13.0272 18.5437 12.9563C18.4729 12.8854 18.3878 12.8304 18.294 12.7948C18.2003 12.7593 18.1001 12.744 18.0001 12.75H13.5001C13.4 12.744 13.2998 12.7593 13.2061 12.7948C13.1124 12.8304 13.0272 12.8854 12.9564 12.9563C12.8855 13.0272 12.8304 13.1123 12.7949 13.206C12.7593 13.2997 12.744 13.3999 12.7501 13.5V18C12.744 18.1001 12.7593 18.2003 12.7949 18.294C12.8304 18.3877 12.8855 18.4728 12.9564 18.5437C13.0272 18.6146 13.1124 18.6696 13.2061 18.7052C13.2998 18.7407 13.4 18.756 13.5001 18.75H18.0001C18.1988 18.7496 18.3894 18.6705 18.5299 18.5299C18.6705 18.3893 18.7497 18.1988 18.7501 18ZM17.2501 17.25H14.2501V14.25H17.2501V17.25ZM10.5001 5.25H6.00006C5.9 5.24398 5.7998 5.25926 5.70608 5.29482C5.61236 5.33039 5.52725 5.38543 5.45637 5.45631C5.38549 5.52719 5.33045 5.6123 5.29488 5.70602C5.25932 5.79974 5.24404 5.89994 5.25006 6V10.5C5.24404 10.6001 5.25932 10.7003 5.29488 10.794C5.33045 10.8877 5.38549 10.9728 5.45637 11.0437C5.52725 11.1146 5.61236 11.1696 5.70608 11.2052C5.7998 11.2407 5.9 11.256 6.00006 11.25H10.5001C10.6001 11.256 10.7003 11.2407 10.794 11.2052C10.8878 11.1696 10.9729 11.1146 11.0437 11.0437C11.1146 10.9728 11.1697 10.8877 11.2052 10.794C11.2408 10.7003 11.2561 10.6001 11.2501 10.5V6C11.2561 5.89994 11.2408 5.79974 11.2052 5.70602C11.1697 5.6123 11.1146 5.52719 11.0437 5.45631C10.9729 5.38543 10.8878 5.33039 10.794 5.29482C10.7003 5.25926 10.6001 5.24398 10.5001 5.25ZM9.75006 9.75H6.75006V6.75H9.75006V9.75ZM13.5001 11.25H18.0001C18.1001 11.256 18.2003 11.2407 18.294 11.2052C18.3878 11.1696 18.4729 11.1146 18.5437 11.0437C18.6146 10.9728 18.6697 10.8877 18.7052 10.794C18.7408 10.7003 18.7561 10.6001 18.7501 10.5V6C18.7561 5.89994 18.7408 5.79974 18.7052 5.70602C18.6697 5.6123 18.6146 5.52719 18.5437 5.45631C18.4729 5.38543 18.3878 5.33039 18.294 5.29482C18.2003 5.25926 18.1001 5.24398 18.0001 5.25H13.5001C13.4 5.24398 13.2998 5.25926 13.2061 5.29482C13.1124 5.33039 13.0272 5.38543 12.9564 5.45631C12.8855 5.52719 12.8304 5.6123 12.7949 5.70602C12.7593 5.79974 12.744 5.89994 12.7501 6V10.5C12.7505 10.6988 12.8296 10.8893 12.9702 11.0299C13.1107 11.1705 13.3013 11.2496 13.5001 11.25ZM14.2501 6.75H17.2501V9.75H14.2501V6.75Z" fill="#000001"/>
<path d="M3 3H6.75V1.5H3C2.60254 1.50119 2.2217 1.6596 1.94065 1.94065C1.6596 2.2217 1.50119 2.60254 1.5 3V21C1.50119 21.3975 1.6596 21.7783 1.94065 22.0593C2.2217 22.3404 2.60254 22.4988 3 22.5H6.75V21H3V3Z" fill="#000001"/>
</svg>

