<svg width="24" height="24" viewBox="0 0 24 24" fill="none" xmlns="http://www.w3.org/2000/svg">
<path d="M5.22183 20.7782C3.68345 19.2398 2.6358 17.2798 2.21136 15.146C1.78692 13.0122 2.00476 10.8005 2.83733 8.79048C3.66989 6.7805 5.07979 5.06253 6.88873 3.85383C8.69767 2.64514 10.8244 2 13 2V8.6C12.1298 8.6 11.2791 8.85806 10.5555 9.34153C9.83191 9.82501 9.26796 10.5122 8.93493 11.3162C8.6019 12.1202 8.51477 13.0049 8.68454 13.8584C8.85432 14.7119 9.27338 15.4959 9.88873 16.1113L5.22183 20.7782Z" fill="#000001"/>
<circle cx="13" cy="13" r="10.25" stroke="#000001" stroke-width="1.5"/>
<path d="M16.4252 7C17.9274 7.84509 19.063 9.19348 19.6206 10.794C20.1781 12.3944 20.1196 14.1378 19.4558 15.6993C18.792 17.2609 17.5683 18.534 16.0126 19.2815C14.4569 20.0291 12.6754 20.2001 11 19.7626L14 16.7626" stroke="#000001" stroke-width="1.5" stroke-linecap="square"/>
</svg>

