<svg width="24" height="24" viewBox="0 0 24 24" fill="none" xmlns="http://www.w3.org/2000/svg">
<path d="M6 13.5H9V15H6V13.5ZM10.5 13.5H13.5V15H10.5V13.5ZM6 10.5H9V12H6V10.5ZM10.5 16.5H13.5V18H10.5V16.5ZM15 10.5H18V12H15V10.5ZM15 16.5H18V18H15V16.5Z" fill="#000001"/>
<path d="M20.25 2.25H3.75C3.3523 2.2504 2.971 2.40856 2.68978 2.68978C2.40856 2.971 2.2504 3.3523 2.25 3.75V20.25C2.2504 20.6477 2.40856 21.029 2.68978 21.3102C2.971 21.5914 3.3523 21.7496 3.75 21.75H20.25C20.6477 21.7496 21.029 21.5914 21.3102 21.3102C21.5914 21.029 21.7496 20.6477 21.75 20.25V3.75C21.7496 3.3523 21.5914 2.971 21.3102 2.68978C21.029 2.40856 20.6477 2.2504 20.25 2.25ZM20.25 3.75V6.75H3.75V3.75H20.25ZM3.75 20.25V8.25H20.25V20.25H3.75Z" fill="#000001"/>
</svg>
