<svg width="24" height="24" viewBox="0 0 24 24" fill="none" xmlns="http://www.w3.org/2000/svg">
<path d="M14.4524 0.589149L22.2311 5.14251C22.5376 5.32191 22.7259 5.6504 22.7259 6.00553V15.1363C22.7259 15.9087 21.8874 16.3895 21.2207 15.9993L13.4421 11.4459C13.1356 11.2665 12.9473 10.938 12.9473 10.5829V1.45216C12.9473 0.6797 13.7858 0.198916 14.4524 0.589149Z" fill="#000001"/>
<path d="M11.0531 2.55592V12.26L19.3572 17.1207C20.017 17.5069 20.017 18.4605 19.3572 18.8467L11.5582 23.4123C11.2461 23.595 10.8598 23.595 10.5478 23.4124L1.27441 17.9841V7.10929C1.27441 6.75416 1.46276 6.42567 1.76923 6.24627L9.54789 1.69291C10.2145 1.30268 11.0531 1.78346 11.0531 2.55592Z" fill="#000001"/>
</svg>
