<svg width="48" height="48" viewBox="0 0 48 48" fill="none" xmlns="http://www.w3.org/2000/svg">
<path d="M24 3C12.4031 3 3 12.4031 3 24C3 35.5969 12.4031 45 24 45C35.5969 45 45 35.5969 45 24C45 12.4031 35.5969 3 24 3ZM24 41.4375C14.3719 41.4375 6.5625 33.6281 6.5625 24C6.5625 14.3719 14.3719 6.5625 24 6.5625C33.6281 6.5625 41.4375 14.3719 41.4375 24C41.4375 33.6281 33.6281 41.4375 24 41.4375Z" fill="#E6485B"/>
<path d="M21.75 32.25C21.75 32.8467 21.9871 33.419 22.409 33.841C22.831 34.2629 23.4033 34.5 24 34.5C24.5967 34.5 25.169 34.2629 25.591 33.841C26.0129 33.419 26.25 32.8467 26.25 32.25C26.25 31.6533 26.0129 31.081 25.591 30.659C25.169 30.2371 24.5967 30 24 30C23.4033 30 22.831 30.2371 22.409 30.659C21.9871 31.081 21.75 31.6533 21.75 32.25V32.25ZM22.875 27H25.125C25.3313 27 25.5 26.8313 25.5 26.625V13.875C25.5 13.6687 25.3313 13.5 25.125 13.5H22.875C22.6687 13.5 22.5 13.6687 22.5 13.875V26.625C22.5 26.8313 22.6687 27 22.875 27Z" fill="#E6485B"/>
</svg>
