<svg width="24" height="24" viewBox="0 0 24 24" fill="none" xmlns="http://www.w3.org/2000/svg">
<path d="M22.4132 11.6862C20.1665 7.53286 16.2265 5.01953 11.8665 5.01953C7.50648 5.01953 3.55982 7.53286 1.33315 11.6862L1.14648 11.9995L1.31982 12.3195C3.56648 16.4729 7.50648 18.9862 11.8665 18.9862C16.2265 18.9862 20.1732 16.5062 22.4132 12.3195L22.5865 11.9995L22.4132 11.6862ZM11.8665 17.6195C8.11315 17.6195 4.66648 15.5262 2.66648 11.9995C4.66648 8.47286 8.11315 6.37953 11.8665 6.37953C15.6198 6.37953 19.0265 8.47953 21.0598 11.9995C19.0265 15.5262 15.6132 17.6195 11.8665 17.6195Z" fill="#7600D1"/>
<path d="M12.06 7.44641C11.1561 7.45301 10.2744 7.72733 9.52626 8.23473C8.77815 8.74213 8.19719 9.45985 7.85676 10.2972C7.51632 11.1346 7.43167 12.0541 7.61351 12.9396C7.79534 13.8251 8.23551 14.6368 8.8784 15.2722C9.5213 15.9077 10.3381 16.3384 11.2256 16.5099C12.1131 16.6814 13.0316 16.586 13.865 16.2359C14.6983 15.8857 15.4092 15.2964 15.9079 14.5425C16.4065 13.7885 16.6706 12.9037 16.6666 11.9997C16.664 11.398 16.5427 10.8028 16.3096 10.248C16.0765 9.69329 15.7363 9.19001 15.3083 8.76701C14.8804 8.34402 14.3731 8.00964 13.8157 7.78302C13.2583 7.55641 12.6617 7.44202 12.06 7.44641ZM12.06 15.2597C11.4215 15.2532 10.7992 15.0581 10.2712 14.699C9.74321 14.3398 9.33311 13.8327 9.09241 13.2413C8.8517 12.6499 8.79111 12.0005 8.91825 11.3748C9.0454 10.749 9.3546 10.1748 9.80703 9.72422C10.2595 9.27363 10.8349 8.96678 11.4612 8.84219C12.0875 8.7176 12.7366 8.78084 13.327 9.02396C13.9174 9.26708 14.4229 9.67924 14.7798 10.2087C15.1368 10.7381 15.3293 11.3612 15.3333 11.9997C15.3351 12.4295 15.2515 12.8553 15.0875 13.2525C14.9235 13.6497 14.6822 14.0104 14.3777 14.3136C14.0732 14.6169 13.7116 14.8566 13.3137 15.0191C12.9158 15.1815 12.4897 15.2633 12.06 15.2597Z" fill="#7600D1"/>
</svg>
