<svg width="24" height="25" viewBox="0 0 24 25" fill="none" xmlns="http://www.w3.org/2000/svg">
<path d="M20.0297 7.26406L14.9859 2.22031C14.8453 2.07969 14.6555 2 14.4562 2H4.5C4.08516 2 3.75 2.33516 3.75 2.75V22.25C3.75 22.6648 4.08516 23 4.5 23H19.5C19.9148 23 20.25 22.6648 20.25 22.25V7.79609C20.25 7.59687 20.1703 7.40469 20.0297 7.26406ZM18.5203 8.14062H14.1094V3.72969L18.5203 8.14062ZM18.5625 21.3125H5.4375V3.6875H12.5156V8.75C12.5156 9.01107 12.6193 9.26145 12.8039 9.44606C12.9885 9.63066 13.2389 9.73438 13.5 9.73438H18.5625V21.3125Z" fill="white"/>
</svg>
