<svg width="24" height="24" viewBox="0 0 24 24" fill="none" xmlns="http://www.w3.org/2000/svg">
<path d="M12 7.49998C11.11 7.49998 10.24 7.7639 9.49998 8.25837C8.75996 8.75284 8.18318 9.45564 7.84259 10.2779C7.50199 11.1002 7.41288 12.005 7.58651 12.8779C7.76014 13.7508 8.18873 14.5526 8.81806 15.182C9.4474 15.8113 10.2492 16.2399 11.1221 16.4135C11.9951 16.5872 12.8999 16.498 13.7221 16.1574C14.5444 15.8168 15.2472 15.2401 15.7417 14.5C16.2361 13.76 16.5 12.89 16.5 12C16.4988 10.8069 16.0243 9.66302 15.1807 8.81937C14.337 7.97573 13.1931 7.50122 12 7.49998ZM12 15C11.4067 15 10.8267 14.824 10.3333 14.4944C9.83999 14.1647 9.45547 13.6962 9.2284 13.148C9.00134 12.5999 8.94193 11.9967 9.05769 11.4147C9.17344 10.8328 9.45917 10.2982 9.87872 9.87866C10.2983 9.4591 10.8328 9.17338 11.4148 9.05763C11.9967 8.94187 12.5999 9.00128 13.1481 9.22834C13.6963 9.45541 14.1648 9.83992 14.4945 10.3333C14.8241 10.8266 15 11.4066 15 12C15 12.7956 14.684 13.5587 14.1214 14.1213C13.5588 14.6839 12.7957 15 12 15ZM20.25 12.2025C20.2538 12.0675 20.2538 11.9325 20.25 11.7975L21.6488 10.05C21.7221 9.95823 21.7729 9.85053 21.797 9.73557C21.8211 9.62061 21.8179 9.50159 21.7875 9.38811C21.5582 8.52617 21.2152 7.69859 20.7675 6.92717C20.7089 6.82622 20.6276 6.74034 20.5299 6.67638C20.4322 6.61242 20.321 6.57213 20.205 6.55873L17.9813 6.31123C17.8888 6.21373 17.795 6.11998 17.7 6.02998L17.4375 3.80061C17.424 3.68456 17.3836 3.57326 17.3195 3.4756C17.2554 3.37794 17.1693 3.29662 17.0682 3.23811C16.2965 2.79124 15.4689 2.44858 14.6072 2.21904C14.4937 2.18885 14.3746 2.18577 14.2597 2.21003C14.1447 2.23429 14.037 2.28523 13.9454 2.35873L12.2025 3.74998H11.7975L10.05 2.35404C9.95829 2.2807 9.8506 2.22994 9.73563 2.20584C9.62067 2.18174 9.50165 2.18498 9.38817 2.21529C8.52637 2.44501 7.69884 2.788 6.92723 3.23529C6.82628 3.29391 6.7404 3.37529 6.67644 3.47294C6.61248 3.57059 6.57219 3.68183 6.55879 3.79779L6.31129 6.02529C6.21379 6.11842 6.12004 6.21217 6.03004 6.30654L3.80067 6.56248C3.68462 6.57598 3.57333 6.61641 3.47567 6.68054C3.37801 6.74467 3.29668 6.83073 3.23817 6.93186C2.79131 7.70357 2.44864 8.53108 2.21911 9.3928C2.18891 9.50635 2.18583 9.62541 2.21009 9.74038C2.23435 9.85534 2.28529 9.963 2.35879 10.0547L3.75004 11.7975V12.2025L2.35411 13.95C2.28076 14.0417 2.23 14.1494 2.2059 14.2644C2.1818 14.3794 2.18504 14.4984 2.21536 14.6119C2.44466 15.4738 2.78767 16.3014 3.23536 17.0728C3.29397 17.1737 3.37535 17.2596 3.473 17.3236C3.57065 17.3875 3.68189 17.4278 3.79786 17.4412L6.02161 17.6887C6.11473 17.7862 6.20848 17.88 6.30286 17.97L6.56254 20.1994C6.57605 20.3154 6.61647 20.4267 6.6806 20.5244C6.74473 20.622 6.83079 20.7033 6.93192 20.7619C7.70363 21.2087 8.53114 21.5514 9.39286 21.7809C9.50641 21.8111 9.62547 21.8142 9.74044 21.7899C9.8554 21.7657 9.96306 21.7147 10.0547 21.6412L11.7975 20.25C11.9325 20.2537 12.0675 20.2537 12.2025 20.25L13.95 21.6487C14.0418 21.7221 14.1495 21.7728 14.2645 21.7969C14.3794 21.821 14.4984 21.8178 14.6119 21.7875C15.4739 21.5582 16.3014 21.2152 17.0729 20.7675C17.1738 20.7089 17.2597 20.6275 17.3236 20.5298C17.3876 20.4322 17.4279 20.3209 17.4413 20.205L17.6888 17.9812C17.7863 17.8887 17.88 17.795 17.97 17.7L20.1994 17.4375C20.3155 17.424 20.4268 17.3836 20.5244 17.3194C20.6221 17.2553 20.7034 17.1692 20.7619 17.0681C21.2088 16.2964 21.5515 15.4689 21.781 14.6072C21.8112 14.4936 21.8143 14.3746 21.79 14.2596C21.7657 14.1446 21.7148 14.037 21.6413 13.9453L20.25 12.2025ZM18.7407 11.5931C18.7566 11.8641 18.7566 12.1358 18.7407 12.4069C18.7295 12.5924 18.7876 12.7755 18.9038 12.9206L20.2341 14.5828C20.0815 15.0679 19.886 15.5385 19.65 15.989L17.5313 16.229C17.3468 16.2495 17.1764 16.3377 17.0532 16.4765C16.8727 16.6795 16.6805 16.8717 16.4775 17.0522C16.3387 17.1754 16.2505 17.3458 16.23 17.5303L15.9947 19.6472C15.5443 19.8832 15.0736 20.0787 14.5885 20.2312L12.9254 18.9009C12.7923 18.7946 12.627 18.7367 12.4566 18.7369H12.4116C12.1406 18.7528 11.8689 18.7528 11.5979 18.7369C11.4123 18.7257 11.2292 18.7838 11.0841 18.9L9.41723 20.2312C8.93211 20.0786 8.4615 19.8831 8.01098 19.6472L7.77098 17.5312C7.7505 17.3467 7.66231 17.1764 7.52348 17.0531C7.32052 16.8726 7.12832 16.6804 6.94786 16.4775C6.82461 16.3387 6.65424 16.2505 6.46973 16.23L4.35286 15.9937C4.11679 15.5433 3.92132 15.0727 3.76879 14.5875L5.09911 12.9244C5.21527 12.7792 5.2734 12.5962 5.26223 12.4106C5.24629 12.1396 5.24629 11.8679 5.26223 11.5969C5.2734 11.4113 5.21527 11.2282 5.09911 11.0831L3.76879 9.41717C3.92144 8.93204 4.1169 8.46144 4.35286 8.01092L6.46879 7.77092C6.65331 7.75044 6.82367 7.66225 6.94692 7.52342C7.12738 7.32046 7.31958 7.12825 7.52254 6.94779C7.66193 6.82446 7.75048 6.65371 7.77098 6.46873L8.00629 4.35279C8.45677 4.11672 8.92738 3.92126 9.41254 3.76873L11.0757 5.09904C11.2208 5.21521 11.4039 5.27334 11.5894 5.26217C11.8604 5.24623 12.1322 5.24623 12.4032 5.26217C12.5887 5.27334 12.7718 5.21521 12.9169 5.09904L14.5829 3.76873C15.068 3.92138 15.5386 4.11684 15.9891 4.35279L16.2291 6.46873C16.2496 6.65325 16.3378 6.82361 16.4766 6.94686C16.6796 7.12732 16.8718 7.31952 17.0522 7.52248C17.1755 7.66131 17.3458 7.7495 17.5304 7.76998L19.6472 8.00529C19.8833 8.45577 20.0788 8.92638 20.2313 9.41154L18.901 11.0747C18.7837 11.221 18.7255 11.406 18.7379 11.5931H18.7407Z" fill="#000001"/>
</svg>
