<svg width="24" height="24" viewBox="0 0 24 24" fill="none" xmlns="http://www.w3.org/2000/svg">
<g clip-path="url(#clip0_1030_6520)">
<path d="M8.55174 0.919556H2.29887C1.53709 0.919556 0.919556 1.53709 0.919556 2.29887V8.55174C0.919556 9.31351 1.53709 9.93105 2.29887 9.93105H8.55174C9.31351 9.93105 9.93105 9.31351 9.93105 8.55174V2.29887C9.93105 1.53709 9.31351 0.919556 8.55174 0.919556Z" stroke="#000001" stroke-width="1.5"/>
<path d="M21.7012 0.919556H15.4483C14.6865 0.919556 14.069 1.53709 14.069 2.29887V8.55174C14.069 9.31351 14.6865 9.93105 15.4483 9.93105H21.7012C22.4629 9.93105 23.0805 9.31351 23.0805 8.55174V2.29887C23.0805 1.53709 22.4629 0.919556 21.7012 0.919556Z" stroke="#000001" stroke-width="1.5"/>
<path d="M8.55174 14.069H2.29887C1.53709 14.069 0.919556 14.6865 0.919556 15.4483V21.7012C0.919556 22.4629 1.53709 23.0805 2.29887 23.0805H8.55174C9.31351 23.0805 9.93105 22.4629 9.93105 21.7012V15.4483C9.93105 14.6865 9.31351 14.069 8.55174 14.069Z" stroke="#000001" stroke-width="1.5"/>
<path d="M21.7012 14.069H15.4483C14.6865 14.069 14.069 14.6865 14.069 15.4483V21.7012C14.069 22.4629 14.6865 23.0805 15.4483 23.0805H21.7012C22.4629 23.0805 23.0805 22.4629 23.0805 21.7012V15.4483C23.0805 14.6865 22.4629 14.069 21.7012 14.069Z" stroke="#000001" stroke-width="1.5"/>
</g>
<defs>
<clipPath id="clip0_1030_6520">
<rect width="24" height="24" fill="white"/>
</clipPath>
</defs>
</svg>

