<svg width="24" height="24" viewBox="0 0 24 24" stroke="currentColor" fill="none" xmlns="http://www.w3.org/2000/svg">
<g clip-path="url(#clip0_1094_7262)">
<path d="M8.55211 0.919434H2.29923C1.53746 0.919434 0.919922 1.53697 0.919922 2.29874V8.55162C0.919922 9.31339 1.53746 9.93093 2.29923 9.93093H8.55211C9.31388 9.93093 9.93142 9.31339 9.93142 8.55162V2.29874C9.93142 1.53697 9.31388 0.919434 8.55211 0.919434Z" stroke-width="1.5"/>
<path d="M21.7015 0.919434H15.4487C14.6869 0.919434 14.0693 1.53697 14.0693 2.29874V8.55162C14.0693 9.31339 14.6869 9.93093 15.4487 9.93093H21.7015C22.4633 9.93093 23.0808 9.31339 23.0808 8.55162V2.29874C23.0808 1.53697 22.4633 0.919434 21.7015 0.919434Z" stroke-width="1.5"/>
<path d="M8.55211 14.0689H2.29923C1.53746 14.0689 0.919922 14.6864 0.919922 15.4482V21.701C0.919922 22.4628 1.53746 23.0804 2.29923 23.0804H8.55211C9.31388 23.0804 9.93142 22.4628 9.93142 21.701V15.4482C9.93142 14.6864 9.31388 14.0689 8.55211 14.0689Z" stroke-width="1.5"/>
<path d="M21.7015 14.0689H15.4487C14.6869 14.0689 14.0693 14.6864 14.0693 15.4482V21.701C14.0693 22.4628 14.6869 23.0804 15.4487 23.0804H21.7015C22.4633 23.0804 23.0808 22.4628 23.0808 21.701V15.4482C23.0808 14.6864 22.4633 14.0689 21.7015 14.0689Z" stroke-width="1.5"/>
</g>
<defs>
<clipPath id="clip0_1094_7262">
<rect width="24" height="24" />
</clipPath>
</defs>
</svg>
