<svg width="24" height="24" viewBox="0 0 24 24" fill="none" xmlns="http://www.w3.org/2000/svg">
<path d="M8.25 18H15.75V19.5H8.25V18ZM9.75 21H14.25V22.5H9.75V21ZM12 1.5C10.0109 1.5 8.10323 2.29018 6.6967 3.6967C5.29018 5.10322 4.5 7.01088 4.5 9C4.44928 10.09 4.65808 11.1765 5.10923 12.17C5.56037 13.1636 6.24096 14.0358 7.095 14.715C7.845 15.4125 8.25 15.81 8.25 16.5H9.75C9.75 15.12 8.9175 14.3475 8.1075 13.605C7.40652 13.0682 6.84786 12.3677 6.48044 11.5649C6.11302 10.7621 5.94806 9.88138 6 9C6 7.4087 6.63214 5.88258 7.75736 4.75736C8.88258 3.63214 10.4087 3 12 3C13.5913 3 15.1174 3.63214 16.2426 4.75736C17.3679 5.88258 18 7.4087 18 9C18.0511 9.88203 17.885 10.7631 17.5162 11.566C17.1475 12.3689 16.5874 13.069 15.885 13.605C15.0825 14.355 14.25 15.105 14.25 16.5H15.75C15.75 15.81 16.1475 15.4125 16.905 14.7075C17.7585 14.0295 18.4387 13.1585 18.8899 12.1663C19.341 11.174 19.5501 10.0888 19.5 9C19.5 8.01509 19.306 7.03982 18.9291 6.12987C18.5522 5.21993 17.9997 4.39314 17.3033 3.6967C16.6069 3.00026 15.7801 2.44781 14.8701 2.0709C13.9602 1.69399 12.9849 1.5 12 1.5Z" fill="#000001"/>
</svg>
