<svg width="48" height="48" viewBox="0 0 48 48" fill="none" xmlns="http://www.w3.org/2000/svg">
<path fill-rule="evenodd" clip-rule="evenodd" d="M4.80078 23.9992C4.80078 23.5218 4.99042 23.064 5.32799 22.7264C5.66555 22.3889 6.12339 22.1992 6.60078 22.1992H14.4451C17.0007 22.1992 17.0007 25.7992 14.4451 25.7992C9.28115 25.7992 6.60078 25.7992 6.60078 25.7992C6.12339 25.7992 5.66555 25.6096 5.32799 25.272C4.99042 24.9344 4.80078 24.4766 4.80078 23.9992Z" fill="#7600D1"/>
<path fill-rule="evenodd" clip-rule="evenodd" d="M29.3127 22.2006H36.816L31.776 17.5206C31.6027 17.3598 31.4627 17.1665 31.3641 16.9517C31.2654 16.7368 31.2101 16.5047 31.2011 16.2684C31.1922 16.0322 31.2299 15.7965 31.3121 15.5749C31.3943 15.3532 31.5193 15.1499 31.68 14.9766C32.0047 14.6265 32.4551 14.4197 32.9321 14.4017C33.1684 14.3928 33.4041 14.4305 33.6257 14.5126C33.8474 14.5948 34.0507 14.7198 34.224 14.8806L42.624 22.6806C42.8058 22.849 42.9508 23.0533 43.0499 23.2804C43.1491 23.5075 43.2003 23.7527 43.2003 24.0006C43.2003 24.2484 43.1491 24.4936 43.0499 24.7207C42.9508 24.9478 42.8058 25.1521 42.624 25.3206L34.224 33.1206C33.8739 33.4452 33.4092 33.6174 32.9321 33.5994C32.4551 33.5814 32.0047 33.3746 31.68 33.0246C31.3554 32.6745 31.1831 32.2098 31.2011 31.7327C31.2192 31.2556 31.4259 30.8052 31.776 30.4806L36.816 25.8006H29.3125C27 25.8006 27 22.2006 29.3127 22.2006Z" fill="#7600D1"/>
<path fill-rule="evenodd" clip-rule="evenodd" d="M26.4362 6.25339C27.4006 6.4945 27.987 7.47178 27.7459 8.43621L19.7459 40.4362C19.5048 41.4006 18.5275 41.987 17.5631 41.7459C16.5986 41.5048 16.0123 40.5275 16.2534 39.5631L24.2534 7.56308C24.4945 6.59865 25.4718 6.01228 26.4362 6.25339Z" fill="#7600D1"/>
</svg>
