<svg width="24" height="24" viewBox="0 0 24 24" fill="none" xmlns="http://www.w3.org/2000/svg">
<path fill-rule="evenodd" clip-rule="evenodd" d="M2.40002 12C2.40002 11.7613 2.49485 11.5324 2.66363 11.3636C2.83241 11.1948 3.06133 11.1 3.30002 11.1H18.408L15.888 8.75997C15.8014 8.6796 15.7314 8.58295 15.682 8.47553C15.6327 8.36811 15.605 8.25203 15.6006 8.13391C15.5961 8.01579 15.615 7.89796 15.6561 7.78713C15.6971 7.6763 15.7597 7.57464 15.84 7.48797C16.0023 7.31293 16.2275 7.20953 16.4661 7.20053C16.5842 7.19607 16.702 7.21492 16.8129 7.25601C16.9237 7.29709 17.0254 7.3596 17.112 7.43997L21.312 11.34C21.4029 11.4242 21.4754 11.5263 21.525 11.6399C21.5746 11.7535 21.6001 11.8761 21.6001 12C21.6001 12.1239 21.5746 12.2465 21.525 12.36C21.4754 12.4736 21.4029 12.5757 21.312 12.66L17.112 16.56C16.937 16.7223 16.7046 16.8084 16.4661 16.7994C16.2275 16.7904 16.0023 16.687 15.84 16.512C15.6777 16.3369 15.5916 16.1046 15.6006 15.866C15.6096 15.6275 15.713 15.4023 15.888 15.24L18.408 12.9H3.30002C3.06133 12.9 2.83241 12.8051 2.66363 12.6364C2.49485 12.4676 2.40002 12.2387 2.40002 12Z" fill="#000001"/>
</svg>
