<svg width="49" height="48" viewBox="0 0 49 48" fill="none" xmlns="http://www.w3.org/2000/svg">
<path fill-rule="evenodd" clip-rule="evenodd" d="M5.30078 24.0006C5.30078 23.5232 5.49042 23.0653 5.82799 22.7278C6.16555 22.3902 6.62339 22.2006 7.10078 22.2006H37.3168L32.2768 17.5206C32.1034 17.3598 31.9635 17.1665 31.8648 16.9517C31.7662 16.7368 31.7108 16.5047 31.7019 16.2684C31.693 16.0322 31.7307 15.7965 31.8129 15.5749C31.895 15.3532 32.02 15.1499 32.1808 14.9766C32.5054 14.6265 32.9558 14.4197 33.4329 14.4017C33.6691 14.3928 33.9048 14.4305 34.1265 14.5126C34.3481 14.5948 34.5514 14.7198 34.7248 14.8806L43.1248 22.6806C43.3065 22.849 43.4515 23.0533 43.5507 23.2804C43.6498 23.5075 43.701 23.7527 43.701 24.0006C43.701 24.2484 43.6498 24.4936 43.5507 24.7207C43.4515 24.9478 43.3065 25.1521 43.1248 25.3206L34.7248 33.1206C34.3747 33.4452 33.91 33.6174 33.4329 33.5994C32.9558 33.5814 32.5054 33.3746 32.1808 33.0246C31.8562 32.6745 31.6839 32.2098 31.7019 31.7327C31.7199 31.2556 31.9267 30.8052 32.2768 30.4806L37.3168 25.8006H7.10078C6.62339 25.8006 6.16555 25.6109 5.82799 25.2733C5.49042 24.9358 5.30078 24.4779 5.30078 24.0006Z" fill="#7600D1"/>
</svg>
