<svg width="24" height="24" viewBox="0 0 24 24" fill="none" xmlns="http://www.w3.org/2000/svg">
<path d="M19.7 4.5C19.5895 4.5 19.5 4.41046 19.5 4.3V1.7C19.5 1.58954 19.4105 1.5 19.3 1.5H1.7C1.58954 1.5 1.5 1.58954 1.5 1.7V8.8C1.5 8.91046 1.58954 9 1.7 9H8.05C8.16046 9 8.25 9.08954 8.25 9.2V22.3C8.25 22.4105 8.33954 22.5 8.45 22.5H22.3C22.4105 22.5 22.5 22.4105 22.5 22.3V4.7C22.5 4.58954 22.4105 4.5 22.3 4.5H19.7ZM3.2 7.5C3.08954 7.5 3 7.41046 3 7.3V3.2C3 3.08954 3.08954 3 3.2 3H17.8C17.9105 3 18 3.08954 18 3.2V4.3C18 4.41046 17.9105 4.5 17.8 4.5H8.45C8.33954 4.5 8.25 4.58954 8.25 4.7V7.3C8.25 7.41046 8.16046 7.5 8.05 7.5H3.2ZM21 20.8C21 20.9105 20.9105 21 20.8 21H9.95C9.83954 21 9.75 20.9105 9.75 20.8V6.2C9.75 6.08954 9.83954 6 9.95 6H20.8C20.9105 6 21 6.08954 21 6.2V20.8Z" fill="#000001"/>
<path d="M11.25 8.45C11.25 8.33954 11.3395 8.25 11.45 8.25H12.55C12.6605 8.25 12.75 8.33954 12.75 8.45V9.55C12.75 9.66046 12.6605 9.75 12.55 9.75H11.45C11.3395 9.75 11.25 9.66046 11.25 9.55V8.45ZM14.25 8.45C14.25 8.33954 14.3395 8.25 14.45 8.25H19.3C19.4105 8.25 19.5 8.33954 19.5 8.45V9.55C19.5 9.66046 19.4105 9.75 19.3 9.75H14.45C14.3395 9.75 14.25 9.66046 14.25 9.55V8.45ZM11.25 12.95C11.25 12.8395 11.3395 12.75 11.45 12.75H12.55C12.6605 12.75 12.75 12.8395 12.75 12.95V14.05C12.75 14.1605 12.6605 14.25 12.55 14.25H11.45C11.3395 14.25 11.25 14.1605 11.25 14.05V12.95ZM14.25 12.95C14.25 12.8395 14.3395 12.75 14.45 12.75H19.3C19.4105 12.75 19.5 12.8395 19.5 12.95V14.05C19.5 14.1605 19.4105 14.25 19.3 14.25H14.45C14.3395 14.25 14.25 14.1605 14.25 14.05V12.95ZM11.25 17.45C11.25 17.3395 11.3395 17.25 11.45 17.25H12.55C12.6605 17.25 12.75 17.3395 12.75 17.45V18.55C12.75 18.6605 12.6605 18.75 12.55 18.75H11.45C11.3395 18.75 11.25 18.6605 11.25 18.55V17.45ZM14.25 17.45C14.25 17.3395 14.3395 17.25 14.45 17.25H19.3C19.4105 17.25 19.5 17.3395 19.5 17.45V18.55C19.5 18.6605 19.4105 18.75 19.3 18.75H14.45C14.3395 18.75 14.25 18.6605 14.25 18.55V17.45Z" fill="#000001"/>
</svg>
