<svg width="24" height="24" viewBox="0 0 24 24" fill="none" xmlns="http://www.w3.org/2000/svg">
<path d="M1.64062 7.03125C2.54672 7.03125 3.28125 6.29672 3.28125 5.39062C3.28125 4.48453 2.54672 3.75 1.64062 3.75C0.734533 3.75 0 4.48453 0 5.39062C0 6.29672 0.734533 7.03125 1.64062 7.03125Z" fill="#000001"/>
<path d="M6.5625 5.39062H22.5938" stroke="#000001" stroke-width="2" stroke-linecap="round"/>
<path d="M1.64062 13.6406C2.54672 13.6406 3.28125 12.9061 3.28125 12C3.28125 11.0939 2.54672 10.3594 1.64062 10.3594C0.734533 10.3594 0 11.0939 0 12C0 12.9061 0.734533 13.6406 1.64062 13.6406Z" fill="#000001"/>
<path d="M6.5625 12H22.5938" stroke="#000001" stroke-width="2" stroke-linecap="round"/>
<path d="M1.64062 20.25C2.54672 20.25 3.28125 19.5155 3.28125 18.6094C3.28125 17.7033 2.54672 16.9688 1.64062 16.9688C0.734533 16.9688 0 17.7033 0 18.6094C0 19.5155 0.734533 20.25 1.64062 20.25Z" fill="#000001"/>
<path d="M6.5625 18.6094H22.5938" stroke="#000001" stroke-width="2" stroke-linecap="round"/>
</svg>

