<svg width="24" height="24" viewBox="0 0 24 24" fill="none" xmlns="http://www.w3.org/2000/svg">
<path d="M2.78125 5.39062C2.78125 6.02057 2.27057 6.53125 1.64062 6.53125C1.01068 6.53125 0.5 6.02057 0.5 5.39062C0.5 4.76068 1.01068 4.25 1.64062 4.25C2.27057 4.25 2.78125 4.76068 2.78125 5.39062Z" fill="#7600D1" stroke="#7600D1"/>
<path d="M6.5625 5.39062H22.5938Z" fill="#7600D1"/>
<path d="M6.5625 5.39062H22.5938" stroke="#7600D1" stroke-width="2" stroke-linecap="round"/>
<path d="M1.64062 13.6406C2.54672 13.6406 3.28125 12.9061 3.28125 12C3.28125 11.0939 2.54672 10.3594 1.64062 10.3594C0.734533 10.3594 0 11.0939 0 12C0 12.9061 0.734533 13.6406 1.64062 13.6406Z" fill="#7600D1"/>
<path d="M6.5625 12H22.5938Z" fill="#7600D1"/>
<path d="M6.5625 12H22.5938" stroke="#7600D1" stroke-width="2" stroke-linecap="round"/>
<path d="M1.64062 20.25C2.54672 20.25 3.28125 19.5155 3.28125 18.6094C3.28125 17.7033 2.54672 16.9688 1.64062 16.9688C0.734533 16.9688 0 17.7033 0 18.6094C0 19.5155 0.734533 20.25 1.64062 20.25Z" fill="#7600D1"/>
<path d="M6.5625 18.6094H22.5938Z" fill="#7600D1"/>
<path d="M6.5625 18.6094H22.5938" stroke="#7600D1" stroke-width="2" stroke-linecap="round"/>
</svg>
