<svg width="82" height="15" viewBox="0 0 82 15" fill="none" xmlns="http://www.w3.org/2000/svg">
<path d="M1 6.5C0.447715 6.5 0 6.94772 0 7.5C0 8.05228 0.447715 8.5 1 8.5V6.5ZM81.7071 8.20711C82.0976 7.81658 82.0976 7.18342 81.7071 6.79289L75.3431 0.428932C74.9526 0.0384078 74.3195 0.0384078 73.9289 0.428932C73.5384 0.819457 73.5384 1.45262 73.9289 1.84315L79.5858 7.5L73.9289 13.1569C73.5384 13.5474 73.5384 14.1805 73.9289 14.5711C74.3195 14.9616 74.9526 14.9616 75.3431 14.5711L81.7071 8.20711ZM1 8.5H81V6.5H1V8.5Z" fill="#000001"/>
</svg>
