<svg width="24" height="24" viewBox="0 0 24 24" fill="none" xmlns="http://www.w3.org/2000/svg">
<path d="M7.78922 6.29452L12 10.5051L16.189 6.31634C16.2815 6.21786 16.393 6.13908 16.5167 6.08472C16.6404 6.03036 16.7738 6.00154 16.9089 6C17.1983 6 17.4757 6.11493 17.6803 6.3195C17.8849 6.52407 17.9998 6.80152 17.9998 7.09083C18.0024 7.22457 17.9776 7.35742 17.9269 7.48122C17.8763 7.60502 17.8008 7.71717 17.7053 7.81078L13.4618 11.9996L17.7053 16.2429C17.8851 16.4188 17.9905 16.657 17.9998 16.9083C17.9998 17.1976 17.8849 17.4751 17.6803 17.6796C17.4757 17.8842 17.1983 17.9991 16.9089 17.9991C16.7699 18.0049 16.6312 17.9817 16.5016 17.931C16.3721 17.8803 16.2544 17.8032 16.1562 17.7046L12 13.494L7.80012 17.6937C7.70795 17.7889 7.59784 17.8649 7.47614 17.9173C7.35444 17.9698 7.22356 17.9976 7.09105 17.9991C6.80174 17.9991 6.52427 17.8842 6.31969 17.6796C6.11511 17.4751 6.00018 17.1976 6.00018 16.9083C5.99763 16.7746 6.02245 16.6417 6.0731 16.5179C6.12375 16.3941 6.19916 16.282 6.29471 16.1884L10.5382 11.9996L6.29471 7.75624C6.11492 7.58035 6.00949 7.34217 6.00018 7.09083C6.00018 6.80152 6.11511 6.52407 6.31969 6.3195C6.52427 6.11493 6.80174 6 7.09105 6C7.35286 6.00327 7.60377 6.10908 7.78922 6.29452Z" fill="#000001"/>
</svg>

