<svg width="24" height="24" viewBox="0 0 24 24" fill="none" xmlns="http://www.w3.org/2000/svg">
<path d="M1.90306 8.54328L6.83163 3.61728L6.90449 3.55385L6.95421 3.52128L7.01592 3.48785L7.10592 3.45357L7.19592 3.43471L7.24049 3.43043L7.28592 3.42871L7.33478 3.43043L7.41363 3.44157L7.50535 3.46728L7.5782 3.499L7.62449 3.52471L7.67849 3.56243L7.7402 3.61728L12.6688 8.54328C12.7827 8.65814 12.8492 8.81175 12.8549 8.97345C12.8606 9.13515 12.8051 9.29305 12.6995 9.41564C12.5939 9.53823 12.446 9.61649 12.2852 9.6348C12.1244 9.65311 11.9627 9.61013 11.8322 9.51443L11.7602 9.45271L7.92878 5.623V19.9287C7.92873 20.0916 7.86685 20.2484 7.75566 20.3674C7.64446 20.4864 7.49223 20.5588 7.32974 20.5699C7.16724 20.581 7.00658 20.53 6.88023 20.4272C6.75389 20.3244 6.67126 20.1775 6.64906 20.0161L6.64306 19.9287V5.623L2.81163 9.45271C2.70268 9.56145 2.55832 9.62749 2.4048 9.63882C2.25128 9.65014 2.09879 9.606 1.97506 9.51443L1.90306 9.45271C1.79397 9.34381 1.72763 9.19934 1.71614 9.04563C1.70466 8.89191 1.74879 8.73918 1.84049 8.61528L1.90306 8.54328ZM16.7145 3.42871C16.8698 3.42872 17.0199 3.48498 17.137 3.58708C17.2541 3.68919 17.3302 3.83024 17.3513 3.98414L17.3573 4.07157V18.3747L21.1888 14.5459L21.2608 14.4833C21.3846 14.3911 21.5375 14.3466 21.6915 14.3579C21.8455 14.3691 21.9902 14.4354 22.0993 14.5447C22.2084 14.6539 22.2746 14.7987 22.2857 14.9527C22.2969 15.1067 22.2522 15.2595 22.1599 15.3833L22.0974 15.4544L17.1876 20.3633C17.0763 20.4851 16.9224 20.5592 16.7578 20.5704C16.5932 20.5816 16.4307 20.5289 16.3039 20.4233L16.2413 20.3633L11.3316 15.4544L11.2691 15.3824C11.1883 15.2732 11.1443 15.1412 11.1432 15.0054C11.1421 14.8696 11.1841 14.7369 11.2631 14.6264L11.3316 14.5459L11.4036 14.4833C11.5129 14.4025 11.6448 14.3585 11.7807 14.3574C11.9165 14.3563 12.0491 14.3983 12.1596 14.4773L12.2402 14.5459L16.0716 18.3764V4.07157L16.0776 3.98414C16.0988 3.83024 16.1749 3.68919 16.292 3.58708C16.4091 3.48498 16.5591 3.42872 16.7145 3.42871Z" fill="currentColor"/>
</svg>
