<svg width="24" height="24" viewBox="0 0 24 24" fill="none" xmlns="http://www.w3.org/2000/svg">
<path d="M1.90282 8.54316L6.83139 3.61716L6.90425 3.55373L6.95396 3.52116L7.01568 3.48773L7.10568 3.45345L7.19568 3.43459L7.24025 3.4303L7.28568 3.42859L7.33453 3.4303L7.41339 3.44145L7.5051 3.46716L7.57796 3.49887L7.62425 3.52459L7.67825 3.5623L7.73996 3.61716L12.6685 8.54316C12.7825 8.65802 12.849 8.81163 12.8547 8.97333C12.8603 9.13503 12.8049 9.29293 12.6993 9.41552C12.5937 9.53811 12.4457 9.61637 12.2849 9.63468C12.1242 9.65299 11.9624 9.61 11.832 9.5143L11.76 9.45259L7.92853 5.62287V19.9286C7.92848 20.0915 7.86661 20.2483 7.75541 20.3673C7.64422 20.4863 7.49199 20.5587 7.32949 20.5698C7.16699 20.5809 7.00634 20.5299 6.87999 20.4271C6.75364 20.3243 6.67102 20.1774 6.64882 20.016L6.64282 19.9286V5.62287L2.81139 9.45259C2.70243 9.56133 2.55808 9.62737 2.40456 9.63869C2.25104 9.65002 2.09855 9.60588 1.97482 9.5143L1.90282 9.45259C1.79372 9.34369 1.72738 9.19922 1.7159 9.0455C1.70441 8.89179 1.74854 8.73906 1.84025 8.61516L1.90282 8.54316ZM16.7142 3.42859C16.8696 3.4286 17.0197 3.48485 17.1368 3.58696C17.2538 3.68907 17.33 3.83011 17.3511 3.98402L17.3571 4.07145V18.3746L21.1885 14.5457L21.2605 14.4832C21.3844 14.391 21.5373 14.3465 21.6912 14.3578C21.8452 14.369 21.99 14.4353 22.0991 14.5445C22.2082 14.6538 22.2744 14.7986 22.2855 14.9526C22.2966 15.1066 22.252 15.2594 22.1597 15.3832L22.0971 15.4543L17.1874 20.3632C17.0761 20.4849 16.9221 20.5591 16.7576 20.5703C16.593 20.5815 16.4304 20.5288 16.3037 20.4232L16.2411 20.3632L11.3314 15.4543L11.2688 15.3823C11.1881 15.2731 11.144 15.1411 11.1429 15.0053C11.1419 14.8695 11.1838 14.7368 11.2628 14.6263L11.3314 14.5457L11.4034 14.4832C11.5126 14.4024 11.6446 14.3584 11.7804 14.3573C11.9162 14.3562 12.0489 14.3982 12.1594 14.4772L12.24 14.5457L16.0714 18.3763V4.07145L16.0774 3.98402C16.0985 3.83011 16.1747 3.68907 16.2917 3.58696C16.4088 3.48485 16.5589 3.4286 16.7142 3.42859Z" fill="#000001"/>
</svg>

