<svg width="69" height="64" viewBox="0 0 69 64" fill="none" xmlns="http://www.w3.org/2000/svg">
<path d="M52.3167 42.8875C52.3167 51.0215 48.7028 58.2522 42.9246 62.84C42.5374 63.1474 41.9832 63.104 41.6336 62.7544L40.6166 61.7374L34.4988 55.6196C34.1082 55.229 34.1082 54.5959 34.4988 54.2053L37.6345 51.0696C38.0251 50.679 38.6582 50.679 39.0488 51.0696L41.4069 53.4277C41.8439 53.8647 42.5699 53.8053 42.8968 53.2809C44.0164 51.4845 44.9116 49.3853 45.3237 47.2417C45.4362 46.6564 44.9704 46.1375 44.3744 46.1375H40.3167C39.7644 46.1375 39.3167 45.6897 39.3167 45.1375V40.6375C39.3167 40.0852 39.7644 39.6375 40.3167 39.6375H44.245C44.8848 39.6375 45.3611 39.0445 45.1983 38.4258C44.6592 36.3774 43.9274 34.4744 42.881 32.5948C42.5682 32.033 41.8075 31.9466 41.3528 32.4013L39.0488 34.7053C38.6582 35.0959 38.0251 35.0959 37.6345 34.7053L34.4988 31.5696C34.1082 31.179 34.1082 30.5459 34.4988 30.1553L36.8569 27.7972C37.2939 27.3602 37.2345 26.6342 36.7101 26.3073C34.9137 25.1877 32.8145 24.2925 30.6709 23.8804C30.0856 23.7679 29.5667 24.2337 29.5667 24.8297V28.8875C29.5667 29.4397 29.1189 29.8875 28.5667 29.8875H24.0667C23.5144 29.8875 23.0667 29.4397 23.0667 28.8875V24.9591C23.0667 24.3193 22.4737 23.843 21.855 24.0058C19.8066 24.5449 17.9036 25.2767 16.024 26.3231C15.4622 26.6359 15.3758 27.3966 15.8305 27.8513L24.3988 36.4196C24.5863 36.6071 24.8436 36.724 25.1027 36.6674C25.5114 36.5782 25.8187 36.3875 26.3167 36.3875C28.0406 36.3875 29.6939 37.0723 30.9128 38.2913C32.1318 39.5102 32.8167 41.1635 32.8167 42.8875C32.8167 44.6114 32.1318 46.2647 30.9128 47.4836C29.6939 48.7026 28.0406 49.3875 26.3167 49.3875C22.7092 49.3875 19.8167 46.4949 19.8167 42.8875C19.8167 42.5002 19.8167 42.2283 19.8854 41.9343C19.9833 41.5152 19.9364 41.0572 19.632 40.7528L11.2264 32.3472C10.7894 31.9102 10.0634 31.9696 9.73652 32.494C8.61688 34.2904 7.72173 36.3896 7.30962 38.5332C7.1971 39.1185 7.6629 39.6375 8.25891 39.6375H12.3167C12.8689 39.6375 13.3167 40.0852 13.3167 40.6375V45.1375C13.3167 45.6897 12.8689 46.1375 12.3167 46.1375H8.38827C7.74852 46.1375 7.27219 46.7304 7.43502 47.3491C7.97409 49.3975 8.70589 51.3005 9.75232 53.1801C10.0651 53.7419 10.8258 53.8283 11.2805 53.3736L13.5845 51.0696C13.9751 50.679 14.6082 50.679 14.9988 51.0696L18.1345 54.2053C18.5251 54.5959 18.5251 55.229 18.1345 55.6196L10.9997 62.7544C10.6501 63.104 10.0959 63.1474 9.70868 62.84C3.93048 58.2522 0.31665 51.0215 0.31665 42.8875C0.31665 28.5225 11.9517 16.8875 26.3167 16.8875C40.6817 16.8875 52.3167 28.5225 52.3167 42.8875ZM68.5667 10.3875C68.5667 4.99245 64.2117 0.637451 58.8167 0.637451C53.4216 0.637451 49.0667 4.99245 49.0667 10.3875C49.0667 14.3653 51.4866 17.7669 54.916 19.2905C55.3007 19.4614 55.5667 19.8329 55.5667 20.2539V28.8875C55.5667 29.4397 56.0144 29.8875 56.5667 29.8875H61.0667C61.6189 29.8875 62.0667 29.4397 62.0667 28.8875V20.2539C62.0667 19.8329 62.3326 19.4614 62.7173 19.2905C66.1467 17.7669 68.5667 14.3653 68.5667 10.3875ZM58.8167 13.6375C57.0292 13.6375 55.5667 12.175 55.5667 10.3875C55.5667 8.59995 57.0292 7.13745 58.8167 7.13745C60.6041 7.13745 62.0667 8.59995 62.0667 10.3875C62.0667 12.175 60.6041 13.6375 58.8167 13.6375Z" fill="#E6485B"/>
</svg>
