<svg width="24" height="24" viewBox="0 0 24 24" fill="none" xmlns="http://www.w3.org/2000/svg">
<path fill-rule="evenodd" clip-rule="evenodd" d="M4 3C3.73478 3 3.48043 3.10536 3.29289 3.29289C3.10536 3.48043 3 3.73478 3 4V8C3 8.26522 3.10536 8.51957 3.29289 8.70711C3.48043 8.89464 3.73478 9 4 9H6C6.55228 9 7 9.44772 7 10C7 10.5523 6.55228 11 6 11H4C3.20435 11 2.44129 10.6839 1.87868 10.1213C1.31607 9.55871 1 8.79565 1 8V4C1 3.20435 1.31607 2.44129 1.87868 1.87868C2.44129 1.31607 3.20435 1 4 1H20C20.7957 1 21.5587 1.31607 22.1213 1.87868C22.6839 2.44129 23 3.20435 23 4V8C23 8.79565 22.6839 9.55871 22.1213 10.1213C21.5587 10.6839 20.7957 11 20 11H18C17.4477 11 17 10.5523 17 10C17 9.44772 17.4477 9 18 9H20C20.2652 9 20.5196 8.89464 20.7071 8.70711C20.8946 8.51957 21 8.26522 21 8V4C21 3.73478 20.8946 3.48043 20.7071 3.29289C20.5196 3.10536 20.2652 3 20 3H4ZM5 6C5 5.44772 5.44772 5 6 5H6.01C6.56228 5 7.01 5.44772 7.01 6C7.01 6.55228 6.56228 7 6.01 7H6C5.44772 7 5 6.55228 5 6ZM1.87868 13.8787C2.44129 13.3161 3.20435 13 4 13H6C6.55228 13 7 13.4477 7 14C7 14.5523 6.55228 15 6 15H4C3.73478 15 3.48043 15.1054 3.29289 15.2929C3.10536 15.4804 3 15.7348 3 16V20C3 20.2652 3.10536 20.5196 3.29289 20.7071C3.48043 20.8946 3.73478 21 4 21H20C20.2652 21 20.5196 20.8946 20.7071 20.7071C20.8946 20.5196 21 20.2652 21 20V16C21 15.7348 20.8946 15.4804 20.7071 15.2929C20.5196 15.1054 20.2652 15 20 15H18C17.4477 15 17 14.5523 17 14C17 13.4477 17.4477 13 18 13H20C20.7957 13 21.5587 13.3161 22.1213 13.8787C22.6839 14.4413 23 15.2043 23 16V20C23 20.7957 22.6839 21.5587 22.1213 22.1213C21.5587 22.6839 20.7957 23 20 23H4C3.20435 23 2.44129 22.6839 1.87868 22.1213C1.31607 21.5587 1 20.7957 1 20V16C1 15.2044 1.31607 14.4413 1.87868 13.8787ZM5 18C5 17.4477 5.44772 17 6 17H6.01C6.56228 17 7.01 17.4477 7.01 18C7.01 18.5523 6.56228 19 6.01 19H6C5.44772 19 5 18.5523 5 18Z" fill="#000001"/>
<path fill-rule="evenodd" clip-rule="evenodd" d="M13.5547 5.16793C14.0142 5.47429 14.1384 6.09516 13.8321 6.55468L10.8685 11H15C15.3688 11 15.7077 11.203 15.8817 11.5281C16.0557 11.8533 16.0366 12.2478 15.8321 12.5547L11.8321 18.5547C11.5257 19.0142 10.9048 19.1384 10.4453 18.832C9.98577 18.5257 9.8616 17.9048 10.168 17.4453L13.1315 13H9C8.63121 13 8.29235 12.797 8.11833 12.4718C7.94431 12.1467 7.96338 11.7521 8.16795 11.4453L12.168 5.44528C12.4743 4.98576 13.0952 4.86158 13.5547 5.16793Z" fill="#000001"/>
</svg>
