<svg width="24" height="24" viewBox="0 0 24 24" fill="none" xmlns="http://www.w3.org/2000/svg">
<path fill-rule="evenodd" clip-rule="evenodd" d="M12.0001 1.25C10.7403 1.25 9.5321 1.75044 8.6413 2.64124C7.7505 3.53204 7.25006 4.74022 7.25006 6C7.25006 7.25978 7.7505 8.46796 8.6413 9.35876C9.5321 10.2496 10.7403 10.75 12.0001 10.75C13.2598 10.75 14.468 10.2496 15.3588 9.35876C16.2496 8.46796 16.7501 7.25978 16.7501 6C16.7501 4.74022 16.2496 3.53204 15.3588 2.64124C14.468 1.75044 13.2598 1.25 12.0001 1.25ZM8.75006 6C8.75006 5.13805 9.09247 4.3114 9.70196 3.7019C10.3115 3.09241 11.1381 2.75 12.0001 2.75C12.862 2.75 13.6887 3.09241 14.2982 3.7019C14.9076 4.3114 15.2501 5.13805 15.2501 6C15.2501 6.86195 14.9076 7.6886 14.2982 8.2981C13.6887 8.90759 12.862 9.25 12.0001 9.25C11.1381 9.25 10.3115 8.90759 9.70196 8.2981C9.09247 7.6886 8.75006 6.86195 8.75006 6ZM12.0001 12.25C9.68706 12.25 7.55506 12.776 5.97606 13.664C4.42006 14.54 3.25006 15.866 3.25006 17.5V17.602C3.24906 18.764 3.24806 20.222 4.52706 21.264C5.15606 21.776 6.03706 22.141 7.22706 22.381C8.41906 22.623 9.97406 22.75 12.0001 22.75C14.0261 22.75 15.5801 22.623 16.7741 22.381C17.9641 22.141 18.8441 21.776 19.4741 21.264C20.7531 20.222 20.7511 18.764 20.7501 17.602V17.5C20.7501 15.866 19.5801 14.54 18.0251 13.664C16.4451 12.776 14.3141 12.25 12.0001 12.25ZM4.75006 17.5C4.75006 16.649 5.37206 15.725 6.71106 14.972C8.02706 14.232 9.89506 13.75 12.0011 13.75C14.1051 13.75 15.9731 14.232 17.2891 14.972C18.6291 15.725 19.2501 16.649 19.2501 17.5C19.2501 18.808 19.2101 19.544 18.5261 20.1C18.1561 20.402 17.5361 20.697 16.4761 20.911C15.4191 21.125 13.9741 21.25 12.0001 21.25C10.0261 21.25 8.58006 21.125 7.52406 20.911C6.46406 20.697 5.84406 20.402 5.47406 20.101C4.79006 19.544 4.75006 18.808 4.75006 17.5Z" fill="#000001"/>
</svg>
