<?xml version="1.0" encoding="utf-8"?>
<!-- Generator: Adobe Illustrator 26.4.1, SVG Export Plug-In . SVG Version: 6.00 Build 0)  -->
<svg version="1.1" id="Layer_1" xmlns="http://www.w3.org/2000/svg" xmlns:xlink="http://www.w3.org/1999/xlink" x="0px"
     y="0px"
     viewBox="0 0 2534 440" style="enable-background:new 0 0 2534 440;" xml:space="preserve">
<style type="text/css">
	.st0{fill:#C71F3A;}
	.st1{fill:#AD1A27;}
	.st2{fill:#CE181E;}
	.st3{fill:#ED1C24;}
</style>
    <title>Unidata</title>
    <g transform="translate(0.000000,440.000000) scale(0.100000,-0.100000)">
	<path class="st0" d="M2025,4373c-189-18-591-116-558-136c19-12,718-287,729-287c2,0,4,97,4,215v215l-67-2
		C2095,4377,2047,4375,2025,4373z"/>
        <path class="st1"
              d="M2250,4165c0-202,1-217,18-212c22,6,585,228,671,264l63,27l-53,19c-158,54-408,102-591,113l-108,7V4165z"/>
        <path class="st2" d="M1370,4158c-10-24-66-153-125-288c-58-135-124-287-147-337c-23-51-39-95-36-98c2-3,83-10,179-15
		c96-6,245-17,332-23l157-13l88,101c266,303,353,407,346,414c-5,4-34,17-64,29c-30,11-199,77-374,146c-176,69-323,126-328,126
		S1381,4181,1370,4158z"/>
        <path class="st2" d="M3005,4190c-11-5-164-66-340-135c-341-134-395-156-395-162c0-2,50-61,111-131s159-182,217-249l106-123h51
		c27,0,100,5,160,10c61,5,188,14,284,20c96,5,177,12,179,15c4,4-37,103-206,490C3039,4231,3052,4211,3005,4190z"/>
        <path class="st1" d="M1215,4132c-127-66-218-125-326-208c-85-65-179-151-179-162s298-307,304-302c2,3,41,91,86,195
		c46,105,116,266,156,359c41,93,73,171,71,172C1326,4188,1275,4163,1215,4132z"/>
        <path class="st0" d="M3120,4186c0-3,39-93,66-151c7-16,45-104,85-195c39-91,91-212,116-270s47-107,50-110c5-5,303,292,303,302
		c0,25-263,229-395,307C3253,4123,3120,4193,3120,4186z"/>
        <path class="st3" d="M2200,3840c-8-10-99-115-202-234c-104-118-188-217-188-220c0-4,187-6,415-6s415,3,415,8c0,4-33,44-73,88
		c-39,45-130,150-202,232c-71,83-134,151-140,151C2220,3859,2208,3851,2200,3840z"/>
        <path class="st1" d="M3633,3578c-84-84-153-156-153-159c0-4,15-12,33-20c17-7,180-77,361-156c181-78,331-141,333-140
		c5,6-87,178-146,272c-53,84-155,218-243,318l-33,38L3633,3578z"/>
        <path class="st0" d="M609,3662c-112-121-243-311-326-476c-24-49-39-86-31-83c7,3,123,53,258,112s292,127,350,152
		c57,24,107,46,109,49c6,5-290,304-300,304C665,3720,638,3694,609,3662z"/>
        <path d="M9280,3466c-101-29-168-83-212-174l-33-67l-3-1247l-2-1248h290h290l2,991c3,930,4,993,20,1003c14,9,22,6,42-14
		c13-14,302-437,642-940c341-503,638-933,661-956c73-75,182-114,318-114c175,0,289,66,359,210l31,65l3,1238l2,1237h-295h-295v-994
		c0-684-3-997-10-1001c-6-4-20-1-30,7c-11,7-299,423-639,923c-341,501-643,936-671,967c-35,39-71,67-117,90c-62,30-73,32-187,35
		C9369,3478,9309,3475,9280,3466z"/>
        <path d="M6088,3434c-83-25-182-114-229-205c-10-21-28-70-41-110c-22-73-22-81-26-814c-4-801,2-961,43-1121c60-235,187-365,418-427
		c81-22,90-22,932-22h850l55,27c88,43,135,90,177,176l38,76l3,1218l2,1218h-310h-310l-2-1086l-3-1086l-38-34l-37-35l-504,3l-503,3
		l-56,37c-76,51-105,102-117,209c-6,48-10,492-10,1037v952l-142-1C6184,3449,6119,3444,6088,3434z"/>
        <path d="M12420,2090V730h305h305v1360v1360h-305h-305V2090z"/>
        <path d="M13770,2090V729l998,4c870,2,1003,5,1047,18c153,48,232,144,255,314c8,55,10,341,8,915l-4,835l-27,100
		c-15,55-45,138-68,185c-76,153-213,261-409,322l-75,23l-862,3l-863,3V2090z M15227,2967c99-21,168-79,216-185c22-47,22-50,25-767
		c2-777,4-748-51-789c-28-21-39-21-533-24l-504-3v891v890h393C15055,2980,15182,2976,15227,2967z"/>
        <path d="M17010,3215v-235h693c452,0,714-4,753-11c106-19,177-78,226-186c19-41,23-70,26-200l4-152l-673-4c-752-4-748-4-882-74
		c-96-51-220-174-265-263c-18-36-43-110-55-165c-19-88-21-130-21-350c0-223,2-260,22-344c58-246,204-418,408-478
		c53-15,135-17,854-21c547-2,822,0,880,8c192,25,291,115,325,295c22,113,22,1645,0,1785c-49,325-203,512-497,602
		c-73,23-74,23-935,26l-863,3V3215z M18708,1614l-3-346l-32-28c-23-20-46-30-85-35c-29-3-251-5-493-3l-440,3l-49,24
		c-128,63-160,136-161,366c0,144,1,152,28,210c43,91,87,129,167,146c19,4,268,7,553,8l518,1L18708,1614z"/>
        <path d="M19830,3215v-235h505h505V1855V730h305h305v1125v1125h510h510v235v235h-1320h-1320V3215z"/>
        <path d="M23030,3215v-235h692c456,0,713-4,754-11c77-13,142-53,184-111c58-79,63-100,68-270l4-158h-608c-625,0-740-6-854-40
		c-174-52-343-224-394-401c-58-199-60-581-5-794c58-227,220-402,414-447c71-16,1597-23,1715-8c186,24,291,113,325,276
		c22,103,22,1702,0,1827c-54,311-199,481-490,579l-70,23l-867,3l-868,3V3215z M24730,1625c0-219-4-342-11-358c-6-13-25-32-42-43
		c-30-18-57-19-517-19h-485l-50,27c-60,32-109,80-129,129c-22,53-39,213-32,294c17,179,74,266,193,294c21,5,271,9,556,10l517,1V1625
		z"/>
        <path class="st3" d="M1055,3313c3-38,12-179,22-315c9-137,19-248,22-248c11,0,585,579,580,584c-3,3-86,10-184,16
		c-99,6-229,15-290,20C1033,3385,1049,3391,1055,3313z"/>
        <path class="st3" d="M3225,3369c-49-4-171-13-269-19c-99-6-182-13-185-16c-5-5,569-584,579-584c4,0,14,111,24,248
		c10,136,20,277,23,315l6,67l-44-1C3335,3378,3275,3374,3225,3369z"/>
        <path class="st2" d="M610,3204c-206-90-379-165-383-166c-6-3,280-749,299-780c4-6,107,80,411,346l102,88l-6,92
		c-9,166-41,577-44,580C987,3366,816,3294,610,3204z"/>
        <path class="st2" d="M3446,3332c-3-20-8-84-11-142c-10-179-25-403-31-451l-5-45l125-108c69-59,132-114,140-121c8-8,67-60,132-116
		c101-86,119-98,125-83c4,11,73,183,154,384s149,370,152,376c4,10-105,59-572,257c-77,33-154,65-172,73l-31,14L3446,3332z"/>
        <path class="st1" d="M151,2867c-57-186-100-447-101-609v-28h215c118,0,215,3,215,8c0,4-31,84-68,177c-37,94-101,257-142,362
		c-41,106-78,193-81,193S169,2923,151,2867z"/>
        <path class="st0"
              d="M4123,2619c-78-195-145-362-149-371c-6-17,8-18,210-18h217l-7,113c-11,187-67,479-115,596l-14,33L4123,2619z"
        />
        <path class="st3" d="M849,2457c-102-89-209-183-237-208l-51-46l187-161c103-89,211-182,240-207l52-47v416c0,229-1,416-2,415
		C1036,2619,951,2546,849,2457z"/>
        <path class="st3"
              d="M3410,2205v-416l79,68c429,372,402,347,382,363c-10,8-100,87-201,175c-100,88-200,175-221,193l-39,34V2205z"/>
        <path class="st0" d="M54,2083c4-54,10-123,13-153c8-88,51-286,85-398c38-123,24-138,136,148c44,113,105,269,136,347s56,145,56,148
		s-97,5-216,5H47L54,2083z"/>
        <path class="st1" d="M3973,2163c19-67,283-720,288-715c14,15,70,201,89,295c30,147,38,211,45,330l6,107h-217
		C3983,2180,3968,2179,3973,2163z"/>
        <path class="st2" d="M525,2151c-3-5-25-60-49-123c-24-62-92-234-150-382c-59-148-105-270-104-271c2-2,66-30,143-63s235-101,350-152
		c116-51,224-98,242-106l32-14l5,43c3,23,13,143,21,267s17,257,20,296l5,71l-128,111c-70,60-184,160-254,221S528,2155,525,2151z"/>
        <path class="st2" d="M3749,2019c-90-79-206-180-257-223l-93-80l5-45c6-49,21-273,31-456c3-60,9-124,12-142l5-31l76,32
		c140,60,687,299,690,301c2,2-50,137-114,301c-65,165-134,341-154,393l-37,93L3749,2019z"/>
        <path class="st3" d="M1076,1408c-9-139-19-282-22-317l-6-64l64,7c34,3,137,11,227,16c251,15,341,22,341,29c0,8-573,581-581,581
		C1096,1660,1086,1546,1076,1408z"/>
        <path class="st3"
              d="M3061,1367l-293-294l178-12c99-6,239-16,313-22c73-5,136-8,138-5c3,2-6,144-19,315l-23,311L3061,1367z"/>
        <path class="st1" d="M292,1208c87-171,265-421,357-502l22-20l149,149c83,83,150,152,150,155s-80,40-177,83c-98,42-261,113-362,157
		s-186,80-188,80S263,1264,292,1208z"/>
        <path class="st0" d="M4055,1246c-77-34-238-105-357-157c-120-52-218-96-218-99s67-72,150-155l149-149l22,20c41,36,169,194,228,282
		c65,98,188,322,174,321C4199,1309,4132,1280,4055,1246z"/>
        <path class="st2" d="M1330,997c-146-11-267-21-269-23s15-45,37-96c235-541,285-654,292-662c5-5,53,9,112,32c57,22,227,88,378,147
		s279,111,284,115c8,8-34,58-309,373l-119,137l-71-1C1627,1018,1476,1008,1330,997z"/>
        <path class="st3" d="M1842,982c18-21,109-126,202-233c92-107,174-194,181-194s73,69,147,154c73,85,164,189,201,232l68,79h-416h-417
		L1842,982z"/>
        <path class="st2" d="M2533,823c-94-109-192-222-218-251c-27-30-44-57-39-61c5-5,34-18,64-29c54-20,322-125,568-222
		c69-28,129-50,134-50c10,0,20,21,143,305c48,110,111,255,141,323c30,67,54,126,54,130c0,7-570,53-645,52
		C2708,1020,2685,997,2533,823z"/>
        <path class="st0" d="M855,800L706,651l29-32c50-52,207-174,306-239c84-54,289-166,289-158c0,5-56,136-150,348
		c-44,102-100,229-122,283c-23,53-45,97-48,97S937,883,855,800z"/>
        <path class="st1" d="M3340,733c-52-120-122-282-157-361s-63-145-63-148c0-11,223,111,315,172c95,64,248,187,289,233l20,22l-149,149
		c-83,83-152,150-155,150S3392,852,3340,733z"/>
        <path class="st1" d="M1875,339c-165-66-329-131-365-146l-65-27l88-28c171-55,364-90,565-104l102-7v217c0,167-3,216-12,215
		C2181,459,2040,404,1875,339z"/>
        <path class="st0" d="M2250,244V27l103,7c125,9,268,29,373,54c132,32,265,75,257,83c-9,9-714,289-728,289
		C2252,460,2250,363,2250,244z"/>
</g>
</svg>
