<?xml version="1.0" encoding="utf-8"?>
<!-- Generator: Adobe Illustrator 27.1.1, SVG Export Plug-In . SVG Version: 6.00 Build 0)  -->
<svg version="1.1" id="Logos" xmlns="http://www.w3.org/2000/svg" xmlns:xlink="http://www.w3.org/1999/xlink" x="0px" y="0px"
	 viewBox="0 0 510.2 170.1" style="enable-background:new 0 0 510.2 170.1;" xml:space="preserve">
<style type="text/css">
	.st0{fill:#00AEEF;}
	.st1{fill-rule:evenodd;clip-rule:evenodd;fill:url(#SVGID_1_);}
</style>
<g>
	<path d="M219.8,71.5V44.3h6.7v26.8c0,4.8,2.7,8.1,8.7,8.1s8.7-3.4,8.7-8.1V44.3h6.7v27.2c0,8.8-6.5,14.2-15.4,14.2
		S219.8,80.2,219.8,71.5z"/>
	<path d="M292.2,44.3V85H287l-19.2-27.6V85h-6.7V44.3h5.2l19.2,27.6V44.3H292.2z"/>
	<path d="M309.9,44.3V85h-6.7V44.3H309.9z"/>
	<path d="M317.2,44.3h7.3l10.8,32.6l10.9-32.6h7.3L339.4,85h-8L317.2,44.3L317.2,44.3z"/>
	<path d="M385.4,78.6V85h-24.7V44.3h24.4v6.4h-17.7v10.6h16.3v6.3h-16.3v11L385.4,78.6L385.4,78.6z"/>
	<path d="M409,70.2h-7.9V85h-6.7V44.3h16.3c7.3,0,13.1,5.8,13.1,13.1s-3.3,9.9-8.1,11.8l9.2,15.8h-7.3C417.6,85,409,70.2,409,70.2z
		 M401.1,64.2h9.6c3.5,0,6.4-3,6.4-6.8s-2.8-6.8-6.4-6.8h-9.6V64.2z"/>
	<path d="M430.8,75.7l5.8-3.4c1.5,4.1,4.6,6.9,10.1,6.9s7.6-2.4,7.6-5.3s-3.2-4.8-9.2-6.7c-6.3-1.9-12.5-4.2-12.5-11.9
		s6.2-11.7,13.1-11.7s11.6,3.5,14.2,8.9l-5.6,3.3c-1.5-3.3-4-5.7-8.5-5.7s-6.4,2-6.4,5.1s2.3,4.5,8.2,6.3
		c6.7,2.2,13.5,4.2,13.5,12.3s-5.9,12-14.4,12s-13.5-4-15.7-10L430.8,75.7z"/>
	<path d="M494.3,78.6V85h-24.7V44.3H494v6.4h-17.7v10.6h16.3v6.3h-16.3v11L494.3,78.6L494.3,78.6z"/>
</g>
<g>
	<path class="st0" d="M244,117.4c0,7.8-5.6,14.1-13.4,14.1h-11v-28.2h11C238.4,103.3,244,109.6,244,117.4z M240.4,117.4
		c0-6-4-10.6-9.8-10.6h-7.2v21.1h7.2C236.4,127.9,240.4,123.3,240.4,117.4L240.4,117.4z"/>
	<path class="st0" d="M268.5,125.2h-12.7l-2.3,6.3h-4l10.5-28.2h4.2l10.5,28.2h-4L268.5,125.2L268.5,125.2z M267.2,121.7l-5.1-13.9
		l-5,13.9H267.2z"/>
	<path class="st0" d="M297.3,106.8H289v24.6h-3.7v-24.6H277v-3.5h20.3C297.3,103.3,297.3,106.8,297.3,106.8z"/>
	<path class="st0" d="M319.3,125.2h-12.7l-2.3,6.3h-4l10.5-28.2h4.2l10.5,28.2h-4L319.3,125.2L319.3,125.2z M318,121.7l-5.1-13.9
		l-5,13.9H318z"/>
</g>
<linearGradient id="SVGID_1_" gradientUnits="userSpaceOnUse" x1="14.8999" y1="87" x2="181.2998" y2="87" gradientTransform="matrix(1 0 0 -1 0 172)">
	<stop  offset="0" style="stop-color:#FF0066"/>
	<stop  offset="0.5" style="stop-color:#9900FF"/>
	<stop  offset="1" style="stop-color:#10C2F5"/>
</linearGradient>
<path class="st1" d="M98.1,168.2c-45.9,0-83.2-37.3-83.2-83.2S52.2,1.8,98.1,1.8c45.9,0,83.2,37.3,83.2,83.2S144,168.2,98.1,168.2z
	 M98.1,10.2c-41.2,0-74.8,33.6-74.8,74.8c0,41.2,33.6,74.8,74.8,74.8c23.7,0,45.5-10.9,59.6-29.5c-9.3,6.5-20.3,10-31.7,10
	c-30.5,0-55.3-24.8-55.3-55.3S95.5,29.7,126,29.7c11.4,0,22.4,3.5,31.6,9.8C143.4,21.1,121.6,10.2,98.1,10.2z M125.9,38.2
	c-25.8,0-46.7,20.9-46.7,46.7s20.9,46.7,46.7,46.7c14.8,0,28.4-6.8,37.2-18.5c-4.4,2.3-9.3,3.5-14.4,3.5
	c-17.4,0-31.6-14.2-31.6-31.6c0-17.4,14.2-31.6,31.6-31.6c5.1,0,10.1,1.2,14.5,3.4C154.4,45.1,140.8,38.2,125.9,38.2z M148.7,61.1
	c-13.2,0-23.9,10.7-23.9,23.9c0,13.2,10.7,23.9,23.9,23.9c13.2,0,23.9-10.7,23.9-23.9C172.6,71.8,161.9,61.1,148.7,61.1z"/>
</svg>
